<?xml version="1.0" encoding="utf-8"?>
<svg version="1.1" xmlns:xlink="http://www.w3.org/1999/xlink" width="33px" height="40px" xmlns="http://www.w3.org/2000/svg">
  <defs>
    <pattern id="BGPattern" patternUnits="userSpaceOnUse" alignment="0 0" imageRepeat="None" />
    <mask fill="white" id="Clip25">
      <path d="M 27.5 11.428571428571427  C 27.5 13.616071428571427  26.934244791666668 15.639880952380949  25.802734375 17.5  C 26.475911458333336 17.70833333333333  27.116861979166668 17.991071428571427  27.7255859375 18.348214285714285  C 28.334309895833336 18.705357142857146  28.9716796875 19.2485119047619  29.6376953125 19.977678571428573  C 30.3037109375 20.706845238095237  30.873046875 21.566220238095237  31.345703125 22.555803571428573  C 31.818359375 23.5453869047619  32.212239583333336 24.825148809523803  32.52734375 26.39508928571429  C 32.842447916666664 27.965029761904763  33 29.72470238095238  33 31.674107142857146  C 33 33.96577380952381  32.283854166666664 35.926339285714285  30.8515625 37.55580357142857  C 29.41927083333334 39.185267857142854  27.693359375 40  25.673828125 40  L 7.326171875 40  C 5.306640625 40  3.5807291666666674 39.185267857142854  2.1484375 37.55580357142857  C 0.7161458333333331 35.926339285714285  0 33.96577380952381  0 31.674107142857146  C 0 29.72470238095238  0.15755208333333331 27.965029761904763  0.47265625 26.39508928571429  C 0.7877604166666667 24.825148809523803  1.181640625 23.5453869047619  1.654296875 22.555803571428573  C 2.126953125 21.566220238095237  2.6962890625 20.706845238095237  3.3623046875 19.977678571428573  C 4.0283203125 19.2485119047619  4.665690104166667 18.705357142857146  5.2744140625 18.348214285714285  C 5.883138020833334 17.991071428571427  6.524088541666667 17.70833333333333  7.197265625 17.5  C 6.065755208333335 15.639880952380949  5.5 13.616071428571427  5.5 11.428571428571427  C 5.5 9.880952380952376  5.7900390625 8.404017857142856  6.3701171875 6.997767857142856  C 6.9501953125 5.591517857142856  7.734375 4.375  8.72265625 3.348214285714284  C 9.7109375 2.321428571428572  10.8818359375 1.506696428571428  12.2353515625 0.9040178571428559  C 13.5888671875 0.3013392857142838  15.010416666666668 0  16.5 0  C 17.989583333333336 0  19.4111328125 0.3013392857142838  20.7646484375 0.9040178571428559  C 22.1181640625 1.506696428571428  23.2890625 2.321428571428572  24.27734375 3.348214285714284  C 25.265625 4.375  26.0498046875 5.591517857142856  26.6298828125 6.997767857142856  C 27.2099609375 8.404017857142856  27.5 9.880952380952376  27.5 11.428571428571427  Z M 22.3330078125 5.368303571428572  C 20.721679687500004 3.694196428571428  18.777343750000004 2.857142857142856  16.5 2.857142857142856  C 14.22265625 2.857142857142856  12.2783203125 3.694196428571428  10.6669921875 5.368303571428572  C 9.0556640625 7.042410714285716  8.25 9.0625  8.25 11.428571428571427  C 8.25 13.794642857142856  9.0556640625 15.814732142857144  10.6669921875 17.488839285714285  C 12.2783203125 19.162946428571427  14.22265625 20  16.5 20  C 18.777343750000004 20  20.721679687500004 19.162946428571427  22.3330078125 17.488839285714285  C 23.9443359375 15.814732142857144  24.75 13.794642857142856  24.75 11.428571428571427  C 24.75 9.0625  23.9443359375 7.042410714285716  22.3330078125 5.368303571428572  Z M 7.326171875 37  L 25.673828125 37  C 26.934244791666668 37.142857142857146  28.012044270833336 36.610863095238095  28.9072265625 35.546875  C 29.802408854166668 34.482886904761905  30.25 33.19196428571429  30.25 31.674107142857146  C 30.25 28.117559523809522  29.687825520833336 25.3125  28.5634765625 23.258928571428573  C 27.439127604166668 21.205357142857146  25.82421875 20.126488095238095  23.71875 20.022321428571427  C 21.641927083333332 21.91220238095238  19.235677083333336 22.857142857142854  16.5 22.857142857142854  C 13.764322916666668 22.857142857142854  11.35807291666667 21.91220238095238  9.28125 20.022321428571427  C 7.17578125 20.126488095238095  5.560872395833334 21.205357142857146  4.4365234375 23.258928571428573  C 3.312174479166667 25.3125  2.75 28.117559523809522  2.75 31.674107142857146  C 2.75 33.19196428571429  3.1975911458333335 34.482886904761905  4.0927734375 35.546875  C 4.987955729166667 36.610863095238095  6.065755208333335 37.142857142857146  7.326171875 37  Z " fill-rule="evenodd" />
    </mask>
  </defs>
  <g transform="matrix(1 0 0 1 -992 -20 )">
    <path d="M 27.5 11.428571428571427  C 27.5 13.616071428571427  26.934244791666668 15.639880952380949  25.802734375 17.5  C 26.475911458333336 17.70833333333333  27.116861979166668 17.991071428571427  27.7255859375 18.348214285714285  C 28.334309895833336 18.705357142857146  28.9716796875 19.2485119047619  29.6376953125 19.977678571428573  C 30.3037109375 20.706845238095237  30.873046875 21.566220238095237  31.345703125 22.555803571428573  C 31.818359375 23.5453869047619  32.212239583333336 24.825148809523803  32.52734375 26.39508928571429  C 32.842447916666664 27.965029761904763  33 29.72470238095238  33 31.674107142857146  C 33 33.96577380952381  32.283854166666664 35.926339285714285  30.8515625 37.55580357142857  C 29.41927083333334 39.185267857142854  27.693359375 40  25.673828125 40  L 7.326171875 40  C 5.306640625 40  3.5807291666666674 39.185267857142854  2.1484375 37.55580357142857  C 0.7161458333333331 35.926339285714285  0 33.96577380952381  0 31.674107142857146  C 0 29.72470238095238  0.15755208333333331 27.965029761904763  0.47265625 26.39508928571429  C 0.7877604166666667 24.825148809523803  1.181640625 23.5453869047619  1.654296875 22.555803571428573  C 2.126953125 21.566220238095237  2.6962890625 20.706845238095237  3.3623046875 19.977678571428573  C 4.0283203125 19.2485119047619  4.665690104166667 18.705357142857146  5.2744140625 18.348214285714285  C 5.883138020833334 17.991071428571427  6.524088541666667 17.70833333333333  7.197265625 17.5  C 6.065755208333335 15.639880952380949  5.5 13.616071428571427  5.5 11.428571428571427  C 5.5 9.880952380952376  5.7900390625 8.404017857142856  6.3701171875 6.997767857142856  C 6.9501953125 5.591517857142856  7.734375 4.375  8.72265625 3.348214285714284  C 9.7109375 2.321428571428572  10.8818359375 1.506696428571428  12.2353515625 0.9040178571428559  C 13.5888671875 0.3013392857142838  15.010416666666668 0  16.5 0  C 17.989583333333336 0  19.4111328125 0.3013392857142838  20.7646484375 0.9040178571428559  C 22.1181640625 1.506696428571428  23.2890625 2.321428571428572  24.27734375 3.348214285714284  C 25.265625 4.375  26.0498046875 5.591517857142856  26.6298828125 6.997767857142856  C 27.2099609375 8.404017857142856  27.5 9.880952380952376  27.5 11.428571428571427  Z M 22.3330078125 5.368303571428572  C 20.721679687500004 3.694196428571428  18.777343750000004 2.857142857142856  16.5 2.857142857142856  C 14.22265625 2.857142857142856  12.2783203125 3.694196428571428  10.6669921875 5.368303571428572  C 9.0556640625 7.042410714285716  8.25 9.0625  8.25 11.428571428571427  C 8.25 13.794642857142856  9.0556640625 15.814732142857144  10.6669921875 17.488839285714285  C 12.2783203125 19.162946428571427  14.22265625 20  16.5 20  C 18.777343750000004 20  20.721679687500004 19.162946428571427  22.3330078125 17.488839285714285  C 23.9443359375 15.814732142857144  24.75 13.794642857142856  24.75 11.428571428571427  C 24.75 9.0625  23.9443359375 7.042410714285716  22.3330078125 5.368303571428572  Z M 7.326171875 37  L 25.673828125 37  C 26.934244791666668 37.142857142857146  28.012044270833336 36.610863095238095  28.9072265625 35.546875  C 29.802408854166668 34.482886904761905  30.25 33.19196428571429  30.25 31.674107142857146  C 30.25 28.117559523809522  29.687825520833336 25.3125  28.5634765625 23.258928571428573  C 27.439127604166668 21.205357142857146  25.82421875 20.126488095238095  23.71875 20.022321428571427  C 21.641927083333332 21.91220238095238  19.235677083333336 22.857142857142854  16.5 22.857142857142854  C 13.764322916666668 22.857142857142854  11.35807291666667 21.91220238095238  9.28125 20.022321428571427  C 7.17578125 20.126488095238095  5.560872395833334 21.205357142857146  4.4365234375 23.258928571428573  C 3.312174479166667 25.3125  2.75 28.117559523809522  2.75 31.674107142857146  C 2.75 33.19196428571429  3.1975911458333335 34.482886904761905  4.0927734375 35.546875  C 4.987955729166667 36.610863095238095  6.065755208333335 37.142857142857146  7.326171875 37  Z " fill-rule="nonzero" fill="rgba(255, 111, 97, 1)" stroke="none" transform="matrix(1 0 0 1 992 20 )" class="fill" />
    <path d="M 27.5 11.428571428571427  C 27.5 13.616071428571427  26.934244791666668 15.639880952380949  25.802734375 17.5  C 26.475911458333336 17.70833333333333  27.116861979166668 17.991071428571427  27.7255859375 18.348214285714285  C 28.334309895833336 18.705357142857146  28.9716796875 19.2485119047619  29.6376953125 19.977678571428573  C 30.3037109375 20.706845238095237  30.873046875 21.566220238095237  31.345703125 22.555803571428573  C 31.818359375 23.5453869047619  32.212239583333336 24.825148809523803  32.52734375 26.39508928571429  C 32.842447916666664 27.965029761904763  33 29.72470238095238  33 31.674107142857146  C 33 33.96577380952381  32.283854166666664 35.926339285714285  30.8515625 37.55580357142857  C 29.41927083333334 39.185267857142854  27.693359375 40  25.673828125 40  L 7.326171875 40  C 5.306640625 40  3.5807291666666674 39.185267857142854  2.1484375 37.55580357142857  C 0.7161458333333331 35.926339285714285  0 33.96577380952381  0 31.674107142857146  C 0 29.72470238095238  0.15755208333333331 27.965029761904763  0.47265625 26.39508928571429  C 0.7877604166666667 24.825148809523803  1.181640625 23.5453869047619  1.654296875 22.555803571428573  C 2.126953125 21.566220238095237  2.6962890625 20.706845238095237  3.3623046875 19.977678571428573  C 4.0283203125 19.2485119047619  4.665690104166667 18.705357142857146  5.2744140625 18.348214285714285  C 5.883138020833334 17.991071428571427  6.524088541666667 17.70833333333333  7.197265625 17.5  C 6.065755208333335 15.639880952380949  5.5 13.616071428571427  5.5 11.428571428571427  C 5.5 9.880952380952376  5.7900390625 8.404017857142856  6.3701171875 6.997767857142856  C 6.9501953125 5.591517857142856  7.734375 4.375  8.72265625 3.348214285714284  C 9.7109375 2.321428571428572  10.8818359375 1.506696428571428  12.2353515625 0.9040178571428559  C 13.5888671875 0.3013392857142838  15.010416666666668 0  16.5 0  C 17.989583333333336 0  19.4111328125 0.3013392857142838  20.7646484375 0.9040178571428559  C 22.1181640625 1.506696428571428  23.2890625 2.321428571428572  24.27734375 3.348214285714284  C 25.265625 4.375  26.0498046875 5.591517857142856  26.6298828125 6.997767857142856  C 27.2099609375 8.404017857142856  27.5 9.880952380952376  27.5 11.428571428571427  Z " stroke-width="0" stroke-dasharray="0" stroke="rgba(255, 255, 255, 0)" fill="none" transform="matrix(1 0 0 1 992 20 )" class="stroke" mask="url(#Clip25)" />
    <path d="M 22.3330078125 5.368303571428572  C 20.721679687500004 3.694196428571428  18.777343750000004 2.857142857142856  16.5 2.857142857142856  C 14.22265625 2.857142857142856  12.2783203125 3.694196428571428  10.6669921875 5.368303571428572  C 9.0556640625 7.042410714285716  8.25 9.0625  8.25 11.428571428571427  C 8.25 13.794642857142856  9.0556640625 15.814732142857144  10.6669921875 17.488839285714285  C 12.2783203125 19.162946428571427  14.22265625 20  16.5 20  C 18.777343750000004 20  20.721679687500004 19.162946428571427  22.3330078125 17.488839285714285  C 23.9443359375 15.814732142857144  24.75 13.794642857142856  24.75 11.428571428571427  C 24.75 9.0625  23.9443359375 7.042410714285716  22.3330078125 5.368303571428572  Z " stroke-width="0" stroke-dasharray="0" stroke="rgba(255, 255, 255, 0)" fill="none" transform="matrix(1 0 0 1 992 20 )" class="stroke" mask="url(#Clip25)" />
    <path d="M 7.326171875 37  L 25.673828125 37  C 26.934244791666668 37.142857142857146  28.012044270833336 36.610863095238095  28.9072265625 35.546875  C 29.802408854166668 34.482886904761905  30.25 33.19196428571429  30.25 31.674107142857146  C 30.25 28.117559523809522  29.687825520833336 25.3125  28.5634765625 23.258928571428573  C 27.439127604166668 21.205357142857146  25.82421875 20.126488095238095  23.71875 20.022321428571427  C 21.641927083333332 21.91220238095238  19.235677083333336 22.857142857142854  16.5 22.857142857142854  C 13.764322916666668 22.857142857142854  11.35807291666667 21.91220238095238  9.28125 20.022321428571427  C 7.17578125 20.126488095238095  5.560872395833334 21.205357142857146  4.4365234375 23.258928571428573  C 3.312174479166667 25.3125  2.75 28.117559523809522  2.75 31.674107142857146  C 2.75 33.19196428571429  3.1975911458333335 34.482886904761905  4.0927734375 35.546875  C 4.987955729166667 36.610863095238095  6.065755208333335 37.142857142857146  7.326171875 37  Z " stroke-width="0" stroke-dasharray="0" stroke="rgba(255, 255, 255, 0)" fill="none" transform="matrix(1 0 0 1 992 20 )" class="stroke" mask="url(#Clip25)" />
  </g>
</svg>