<?xml version="1.0" encoding="utf-8"?>
<svg version="1.1" xmlns:xlink="http://www.w3.org/1999/xlink" width="34px" height="40px" xmlns="http://www.w3.org/2000/svg">
  <defs>
    <pattern id="BGPattern" patternUnits="userSpaceOnUse" alignment="0 0" imageRepeat="None" />
    <mask fill="white" id="Clip28">
      <path d="M 17.044270833333336 22.857142857142854  C 20.34982638888889 22.857142857142854  22.002604166666664 24.107142857142854  22.002604166666664 26.607142857142854  C 22.002604166666664 27.886904761904763  21.87717013888889 29.352678571428573  21.626302083333336 31.00446428571429  C 21.168836805555554 34.203869047619044  20.763020833333336 36.532738095238095  20.408854166666664 37.99107142857143  C 20.084201388888893 39.330357142857146  18.962673611111114 40  17.044270833333336 40  C 15.125868055555557 40  14.004340277777779 39.330357142857146  13.6796875 37.99107142857143  C 13.325520833333332 36.532738095238095  12.919704861111112 34.203869047619044  12.462239583333332 31.00446428571429  C 12.211371527777779 29.367559523809526  12.0859375 27.90178571428571  12.0859375 26.607142857142854  C 12.0859375 24.107142857142854  13.738715277777779 22.857142857142854  17.044270833333336 22.857142857142854  Z M 32.550130208333336 10.256696428571427  C 33.51671006944444 12.436755952380949  34 14.732142857142856  34 17.142857142857146  C 34 20.71428571428571  33.01128472222222 23.943452380952376  31.033854166666664 26.830357142857146  C 29.056423611111114 29.7172619047619  26.473958333333336 31.800595238095237  23.286458333333336 33.080357142857146  C 23.16840277777778 33.125  23.057725694444446 33.10267857142857  22.954427083333336 33.013392857142854  C 22.851128472222225 32.924107142857146  22.806857638888893 32.8125  22.821614583333336 32.67857142857143  C 22.924913194444446 31.96428571428571  22.998697916666664 31.47321428571429  23.04296875 31.205357142857146  C 23.10199652777778 30.72916666666667  23.146267361111114 30.37946428571429  23.17578125 30.15625  C 23.190538194444446 30.022321428571427  23.256944444444446 29.93303571428571  23.375 29.888392857142854  C 25.721354166666664 28.68303571428571  27.606553819444446 26.94196428571429  29.030598958333336 24.665178571428573  C 30.454644097222225 22.388392857142854  31.166666666666664 19.88095238095238  31.166666666666664 17.142857142857146  C 31.166666666666664 14.464285714285715  30.495225694444446 12.00520833333333  29.15234375 9.765625  C 27.809461805555557 7.526041666666665  25.986979166666664 5.78125  23.684895833333336 4.53125  C 21.3828125 3.28125  18.896267361111114 2.7306547619047583  16.225260416666668 2.879464285714284  C 14.395399305555557 2.983630952380949  12.64670138888889 3.4375  10.979166666666668 4.241071428571428  C 9.311631944444445 5.044642857142856  7.883897569444445 6.090029761904758  6.695963541666666 7.377232142857144  C 5.508029513888889 8.664434523809522  4.563585069444445 10.167410714285715  3.862630208333333 11.886160714285715  C 3.1616753472222223 13.604910714285715  2.8185763888888893 15.394345238095234  2.833333333333333 17.254464285714285  C 2.848090277777778 19.992559523809522  3.578559027777778 22.496279761904763  5.024739583333334 24.765625  C 6.470920138888889 27.034970238095237  8.3671875 28.757440476190474  10.713541666666668 29.93303571428571  C 10.816840277777777 29.977678571428573  10.883246527777777 30.06696428571429  10.912760416666668 30.200892857142854  C 10.95703125 30.513392857142854  11.001302083333332 30.84821428571429  11.045572916666668 31.205357142857146  C 11.060329861111112 31.33928571428571  11.097222222222223 31.581101190476186  11.15625 31.930803571428573  C 11.215277777777777 32.280505952380956  11.259548611111112 32.544642857142854  11.2890625 32.72321428571429  C 11.303819444444445 32.857142857142854  11.255859375 32.96875  11.145182291666668 33.05803571428571  C 11.034505208333332 33.14732142857143  10.92013888888889 33.16220238095238  10.802083333333332 33.10267857142857  C 8.618055555555557 32.23958333333333  6.692274305555556 30.97842261904762  5.024739583333334 29.319196428571427  C 3.3572048611111116 27.659970238095237  2.077039930555556 25.695684523809522  1.1842447916666665 23.42633928571429  C 0.29144965277777773 21.156994047619047  -0.0959201388888889 18.7797619047619  0.022135416666666664 16.294642857142854  C 0.1254340277777778 14.166666666666664  0.6124131944444444 12.131696428571427  1.4830729166666665 10.189732142857144  C 2.3537326388888893 8.247767857142856  3.4937065972222223 6.558779761904758  4.902994791666666 5.122767857142856  C 6.312282986111112 3.686755952380949  7.972439236111111 2.514880952380949  9.883463541666668 1.6071428571428559  C 11.794487847222223 0.6994047619047583  13.805121527777779 0.17857142857142794  15.915364583333332 0.044642857142855874  C 18.335503472222225 -0.10416666666666963  20.663411458333336 0.2418154761904745  22.899088541666664 1.0825892857142838  C 25.134765625 1.9233630952380931  27.060546875 3.117559523809521  28.676432291666664 4.665178571428572  C 30.292317708333336 6.212797619047619  31.583550347222225 8.076636904761902  32.550130208333336 10.256696428571427  Z M 20.552734375 12.890625  C 21.519314236111114 13.865327380952376  22.002604166666664 15.044642857142856  22.002604166666664 16.428571428571427  C 22.002604166666664 17.8125  21.519314236111114 18.991815476190474  20.552734375 19.966517857142854  C 19.58615451388889 20.941220238095237  18.416666666666664 21.428571428571427  17.044270833333336 21.428571428571427  C 15.671875 21.428571428571427  14.502387152777779 20.941220238095237  13.535807291666668 19.966517857142854  C 12.569227430555557 18.991815476190474  12.0859375 17.8125  12.0859375 16.428571428571427  C 12.0859375 15.044642857142856  12.569227430555557 13.865327380952376  13.535807291666668 12.890625  C 14.502387152777779 11.915922619047619  15.671875 11.428571428571427  17.044270833333336 11.428571428571427  C 18.416666666666664 11.428571428571427  19.58615451388889 11.915922619047619  20.552734375 12.890625  Z M 26.772786458333336 11.261160714285715  C 27.842664930555557 13.054315476190474  28.377604166666664 15.014880952380949  28.377604166666664 17.142857142857146  C 28.377604166666664 18.95833333333333  27.98285590277778 20.658482142857146  27.193359375 22.243303571428573  C 26.403862847222225 23.828125  25.322916666666664 25.148809523809522  23.950520833333336 26.205357142857146  C 23.83246527777778 26.294642857142854  23.714409722222225 26.309523809523803  23.596354166666664 26.25  C 23.478298611111114 26.190476190476186  23.404513888888893 26.086309523809522  23.375 25.9375  C 23.286458333333336 25.163690476190474  23.072482638888893 24.47916666666666  22.733072916666664 23.883928571428573  C 22.629774305555557 23.735119047619047  22.651909722222225 23.586309523809526  22.799479166666664 23.4375  C 23.655381944444446 22.633928571428573  24.326822916666664 21.688988095238095  24.813802083333336 20.602678571428573  C 25.30078125 19.516369047619047  25.544270833333336 18.363095238095237  25.544270833333336 17.142857142857146  C 25.544270833333336 15.491071428571427  25.112630208333336 13.973214285714285  24.249348958333336 12.589285714285715  C 23.386067708333336 11.205357142857144  22.223958333333336 10.15252976190476  20.763020833333336 9.430803571428573  C 19.302083333333336 8.709077380952376  17.737847222222225 8.4375  16.0703125 8.616071428571427  C 14.10763888888889 8.839285714285715  12.41796875 9.680059523809522  11.001302083333332 11.138392857142856  C 9.584635416666668 12.59672619047619  8.780381944444445 14.31547619047619  8.588541666666668 16.294642857142854  C 8.440972222222223 17.663690476190474  8.614366319444445 18.973214285714285  9.108723958333332 20.22321428571429  C 9.603081597222223 21.47321428571429  10.329861111111112 22.544642857142854  11.2890625 23.4375  C 11.436631944444446 23.586309523809526  11.458767361111112 23.735119047619047  11.35546875 23.883928571428573  C 11.001302083333334 24.49404761904762  10.78732638888889 25.1860119047619  10.713541666666668 25.959821428571427  C 10.684027777777777 26.09375  10.610243055555557 26.190476190476186  10.4921875 26.25  C 10.374131944444445 26.309523809523803  10.25607638888889 26.294642857142854  10.138020833333332 26.205357142857146  C 8.736111111111112 25.10416666666666  7.640407986111112 23.742559523809522  6.850911458333334 22.12053571428571  C 6.061414930555556 20.4985119047619  5.681423611111112 18.757440476190474  5.7109375 16.897321428571427  C 5.755208333333334 14.947916666666664  6.264322916666666 13.132440476190474  7.23828125 11.450892857142856  C 8.212239583333334 9.769345238095234  9.518229166666668 8.418898809523805  11.15625 7.399553571428572  C 12.794270833333332 6.38020833333333  14.57248263888889 5.825892857142856  16.490885416666668 5.736607142857144  C 18.615885416666664 5.6324404761904745  20.593315972222225 6.078869047619047  22.423177083333336 7.075892857142856  C 24.253038194444446 8.072916666666664  25.702907986111114 9.468005952380949  26.772786458333336 11.261160714285715  Z " fill-rule="evenodd" />
    </mask>
  </defs>
  <g transform="matrix(1 0 0 1 -936 -20 )">
    <path d="M 17.044270833333336 22.857142857142854  C 20.34982638888889 22.857142857142854  22.002604166666664 24.107142857142854  22.002604166666664 26.607142857142854  C 22.002604166666664 27.886904761904763  21.87717013888889 29.352678571428573  21.626302083333336 31.00446428571429  C 21.168836805555554 34.203869047619044  20.763020833333336 36.532738095238095  20.408854166666664 37.99107142857143  C 20.084201388888893 39.330357142857146  18.962673611111114 40  17.044270833333336 40  C 15.125868055555557 40  14.004340277777779 39.330357142857146  13.6796875 37.99107142857143  C 13.325520833333332 36.532738095238095  12.919704861111112 34.203869047619044  12.462239583333332 31.00446428571429  C 12.211371527777779 29.367559523809526  12.0859375 27.90178571428571  12.0859375 26.607142857142854  C 12.0859375 24.107142857142854  13.738715277777779 22.857142857142854  17.044270833333336 22.857142857142854  Z M 32.550130208333336 10.256696428571427  C 33.51671006944444 12.436755952380949  34 14.732142857142856  34 17.142857142857146  C 34 20.71428571428571  33.01128472222222 23.943452380952376  31.033854166666664 26.830357142857146  C 29.056423611111114 29.7172619047619  26.473958333333336 31.800595238095237  23.286458333333336 33.080357142857146  C 23.16840277777778 33.125  23.057725694444446 33.10267857142857  22.954427083333336 33.013392857142854  C 22.851128472222225 32.924107142857146  22.806857638888893 32.8125  22.821614583333336 32.67857142857143  C 22.924913194444446 31.96428571428571  22.998697916666664 31.47321428571429  23.04296875 31.205357142857146  C 23.10199652777778 30.72916666666667  23.146267361111114 30.37946428571429  23.17578125 30.15625  C 23.190538194444446 30.022321428571427  23.256944444444446 29.93303571428571  23.375 29.888392857142854  C 25.721354166666664 28.68303571428571  27.606553819444446 26.94196428571429  29.030598958333336 24.665178571428573  C 30.454644097222225 22.388392857142854  31.166666666666664 19.88095238095238  31.166666666666664 17.142857142857146  C 31.166666666666664 14.464285714285715  30.495225694444446 12.00520833333333  29.15234375 9.765625  C 27.809461805555557 7.526041666666665  25.986979166666664 5.78125  23.684895833333336 4.53125  C 21.3828125 3.28125  18.896267361111114 2.7306547619047583  16.225260416666668 2.879464285714284  C 14.395399305555557 2.983630952380949  12.64670138888889 3.4375  10.979166666666668 4.241071428571428  C 9.311631944444445 5.044642857142856  7.883897569444445 6.090029761904758  6.695963541666666 7.377232142857144  C 5.508029513888889 8.664434523809522  4.563585069444445 10.167410714285715  3.862630208333333 11.886160714285715  C 3.1616753472222223 13.604910714285715  2.8185763888888893 15.394345238095234  2.833333333333333 17.254464285714285  C 2.848090277777778 19.992559523809522  3.578559027777778 22.496279761904763  5.024739583333334 24.765625  C 6.470920138888889 27.034970238095237  8.3671875 28.757440476190474  10.713541666666668 29.93303571428571  C 10.816840277777777 29.977678571428573  10.883246527777777 30.06696428571429  10.912760416666668 30.200892857142854  C 10.95703125 30.513392857142854  11.001302083333332 30.84821428571429  11.045572916666668 31.205357142857146  C 11.060329861111112 31.33928571428571  11.097222222222223 31.581101190476186  11.15625 31.930803571428573  C 11.215277777777777 32.280505952380956  11.259548611111112 32.544642857142854  11.2890625 32.72321428571429  C 11.303819444444445 32.857142857142854  11.255859375 32.96875  11.145182291666668 33.05803571428571  C 11.034505208333332 33.14732142857143  10.92013888888889 33.16220238095238  10.802083333333332 33.10267857142857  C 8.618055555555557 32.23958333333333  6.692274305555556 30.97842261904762  5.024739583333334 29.319196428571427  C 3.3572048611111116 27.659970238095237  2.077039930555556 25.695684523809522  1.1842447916666665 23.42633928571429  C 0.29144965277777773 21.156994047619047  -0.0959201388888889 18.7797619047619  0.022135416666666664 16.294642857142854  C 0.1254340277777778 14.166666666666664  0.6124131944444444 12.131696428571427  1.4830729166666665 10.189732142857144  C 2.3537326388888893 8.247767857142856  3.4937065972222223 6.558779761904758  4.902994791666666 5.122767857142856  C 6.312282986111112 3.686755952380949  7.972439236111111 2.514880952380949  9.883463541666668 1.6071428571428559  C 11.794487847222223 0.6994047619047583  13.805121527777779 0.17857142857142794  15.915364583333332 0.044642857142855874  C 18.335503472222225 -0.10416666666666963  20.663411458333336 0.2418154761904745  22.899088541666664 1.0825892857142838  C 25.134765625 1.9233630952380931  27.060546875 3.117559523809521  28.676432291666664 4.665178571428572  C 30.292317708333336 6.212797619047619  31.583550347222225 8.076636904761902  32.550130208333336 10.256696428571427  Z M 20.552734375 12.890625  C 21.519314236111114 13.865327380952376  22.002604166666664 15.044642857142856  22.002604166666664 16.428571428571427  C 22.002604166666664 17.8125  21.519314236111114 18.991815476190474  20.552734375 19.966517857142854  C 19.58615451388889 20.941220238095237  18.416666666666664 21.428571428571427  17.044270833333336 21.428571428571427  C 15.671875 21.428571428571427  14.502387152777779 20.941220238095237  13.535807291666668 19.966517857142854  C 12.569227430555557 18.991815476190474  12.0859375 17.8125  12.0859375 16.428571428571427  C 12.0859375 15.044642857142856  12.569227430555557 13.865327380952376  13.535807291666668 12.890625  C 14.502387152777779 11.915922619047619  15.671875 11.428571428571427  17.044270833333336 11.428571428571427  C 18.416666666666664 11.428571428571427  19.58615451388889 11.915922619047619  20.552734375 12.890625  Z M 26.772786458333336 11.261160714285715  C 27.842664930555557 13.054315476190474  28.377604166666664 15.014880952380949  28.377604166666664 17.142857142857146  C 28.377604166666664 18.95833333333333  27.98285590277778 20.658482142857146  27.193359375 22.243303571428573  C 26.403862847222225 23.828125  25.322916666666664 25.148809523809522  23.950520833333336 26.205357142857146  C 23.83246527777778 26.294642857142854  23.714409722222225 26.309523809523803  23.596354166666664 26.25  C 23.478298611111114 26.190476190476186  23.404513888888893 26.086309523809522  23.375 25.9375  C 23.286458333333336 25.163690476190474  23.072482638888893 24.47916666666666  22.733072916666664 23.883928571428573  C 22.629774305555557 23.735119047619047  22.651909722222225 23.586309523809526  22.799479166666664 23.4375  C 23.655381944444446 22.633928571428573  24.326822916666664 21.688988095238095  24.813802083333336 20.602678571428573  C 25.30078125 19.516369047619047  25.544270833333336 18.363095238095237  25.544270833333336 17.142857142857146  C 25.544270833333336 15.491071428571427  25.112630208333336 13.973214285714285  24.249348958333336 12.589285714285715  C 23.386067708333336 11.205357142857144  22.223958333333336 10.15252976190476  20.763020833333336 9.430803571428573  C 19.302083333333336 8.709077380952376  17.737847222222225 8.4375  16.0703125 8.616071428571427  C 14.10763888888889 8.839285714285715  12.41796875 9.680059523809522  11.001302083333332 11.138392857142856  C 9.584635416666668 12.59672619047619  8.780381944444445 14.31547619047619  8.588541666666668 16.294642857142854  C 8.440972222222223 17.663690476190474  8.614366319444445 18.973214285714285  9.108723958333332 20.22321428571429  C 9.603081597222223 21.47321428571429  10.329861111111112 22.544642857142854  11.2890625 23.4375  C 11.436631944444446 23.586309523809526  11.458767361111112 23.735119047619047  11.35546875 23.883928571428573  C 11.001302083333334 24.49404761904762  10.78732638888889 25.1860119047619  10.713541666666668 25.959821428571427  C 10.684027777777777 26.09375  10.610243055555557 26.190476190476186  10.4921875 26.25  C 10.374131944444445 26.309523809523803  10.25607638888889 26.294642857142854  10.138020833333332 26.205357142857146  C 8.736111111111112 25.10416666666666  7.640407986111112 23.742559523809522  6.850911458333334 22.12053571428571  C 6.061414930555556 20.4985119047619  5.681423611111112 18.757440476190474  5.7109375 16.897321428571427  C 5.755208333333334 14.947916666666664  6.264322916666666 13.132440476190474  7.23828125 11.450892857142856  C 8.212239583333334 9.769345238095234  9.518229166666668 8.418898809523805  11.15625 7.399553571428572  C 12.794270833333332 6.38020833333333  14.57248263888889 5.825892857142856  16.490885416666668 5.736607142857144  C 18.615885416666664 5.6324404761904745  20.593315972222225 6.078869047619047  22.423177083333336 7.075892857142856  C 24.253038194444446 8.072916666666664  25.702907986111114 9.468005952380949  26.772786458333336 11.261160714285715  Z " fill-rule="nonzero" fill="rgba(255, 111, 97, 1)" stroke="none" transform="matrix(1 0 0 1 936 20 )" class="fill" />
    <path d="M 17.044270833333336 22.857142857142854  C 20.34982638888889 22.857142857142854  22.002604166666664 24.107142857142854  22.002604166666664 26.607142857142854  C 22.002604166666664 27.886904761904763  21.87717013888889 29.352678571428573  21.626302083333336 31.00446428571429  C 21.168836805555554 34.203869047619044  20.763020833333336 36.532738095238095  20.408854166666664 37.99107142857143  C 20.084201388888893 39.330357142857146  18.962673611111114 40  17.044270833333336 40  C 15.125868055555557 40  14.004340277777779 39.330357142857146  13.6796875 37.99107142857143  C 13.325520833333332 36.532738095238095  12.919704861111112 34.203869047619044  12.462239583333332 31.00446428571429  C 12.211371527777779 29.367559523809526  12.0859375 27.90178571428571  12.0859375 26.607142857142854  C 12.0859375 24.107142857142854  13.738715277777779 22.857142857142854  17.044270833333336 22.857142857142854  Z " stroke-width="0" stroke-dasharray="0" stroke="rgba(255, 255, 255, 0)" fill="none" transform="matrix(1 0 0 1 936 20 )" class="stroke" mask="url(#Clip28)" />
    <path d="M 32.550130208333336 10.256696428571427  C 33.51671006944444 12.436755952380949  34 14.732142857142856  34 17.142857142857146  C 34 20.71428571428571  33.01128472222222 23.943452380952376  31.033854166666664 26.830357142857146  C 29.056423611111114 29.7172619047619  26.473958333333336 31.800595238095237  23.286458333333336 33.080357142857146  C 23.16840277777778 33.125  23.057725694444446 33.10267857142857  22.954427083333336 33.013392857142854  C 22.851128472222225 32.924107142857146  22.806857638888893 32.8125  22.821614583333336 32.67857142857143  C 22.924913194444446 31.96428571428571  22.998697916666664 31.47321428571429  23.04296875 31.205357142857146  C 23.10199652777778 30.72916666666667  23.146267361111114 30.37946428571429  23.17578125 30.15625  C 23.190538194444446 30.022321428571427  23.256944444444446 29.93303571428571  23.375 29.888392857142854  C 25.721354166666664 28.68303571428571  27.606553819444446 26.94196428571429  29.030598958333336 24.665178571428573  C 30.454644097222225 22.388392857142854  31.166666666666664 19.88095238095238  31.166666666666664 17.142857142857146  C 31.166666666666664 14.464285714285715  30.495225694444446 12.00520833333333  29.15234375 9.765625  C 27.809461805555557 7.526041666666665  25.986979166666664 5.78125  23.684895833333336 4.53125  C 21.3828125 3.28125  18.896267361111114 2.7306547619047583  16.225260416666668 2.879464285714284  C 14.395399305555557 2.983630952380949  12.64670138888889 3.4375  10.979166666666668 4.241071428571428  C 9.311631944444445 5.044642857142856  7.883897569444445 6.090029761904758  6.695963541666666 7.377232142857144  C 5.508029513888889 8.664434523809522  4.563585069444445 10.167410714285715  3.862630208333333 11.886160714285715  C 3.1616753472222223 13.604910714285715  2.8185763888888893 15.394345238095234  2.833333333333333 17.254464285714285  C 2.848090277777778 19.992559523809522  3.578559027777778 22.496279761904763  5.024739583333334 24.765625  C 6.470920138888889 27.034970238095237  8.3671875 28.757440476190474  10.713541666666668 29.93303571428571  C 10.816840277777777 29.977678571428573  10.883246527777777 30.06696428571429  10.912760416666668 30.200892857142854  C 10.95703125 30.513392857142854  11.001302083333332 30.84821428571429  11.045572916666668 31.205357142857146  C 11.060329861111112 31.33928571428571  11.097222222222223 31.581101190476186  11.15625 31.930803571428573  C 11.215277777777777 32.280505952380956  11.259548611111112 32.544642857142854  11.2890625 32.72321428571429  C 11.303819444444445 32.857142857142854  11.255859375 32.96875  11.145182291666668 33.05803571428571  C 11.034505208333332 33.14732142857143  10.92013888888889 33.16220238095238  10.802083333333332 33.10267857142857  C 8.618055555555557 32.23958333333333  6.692274305555556 30.97842261904762  5.024739583333334 29.319196428571427  C 3.3572048611111116 27.659970238095237  2.077039930555556 25.695684523809522  1.1842447916666665 23.42633928571429  C 0.29144965277777773 21.156994047619047  -0.0959201388888889 18.7797619047619  0.022135416666666664 16.294642857142854  C 0.1254340277777778 14.166666666666664  0.6124131944444444 12.131696428571427  1.4830729166666665 10.189732142857144  C 2.3537326388888893 8.247767857142856  3.4937065972222223 6.558779761904758  4.902994791666666 5.122767857142856  C 6.312282986111112 3.686755952380949  7.972439236111111 2.514880952380949  9.883463541666668 1.6071428571428559  C 11.794487847222223 0.6994047619047583  13.805121527777779 0.17857142857142794  15.915364583333332 0.044642857142855874  C 18.335503472222225 -0.10416666666666963  20.663411458333336 0.2418154761904745  22.899088541666664 1.0825892857142838  C 25.134765625 1.9233630952380931  27.060546875 3.117559523809521  28.676432291666664 4.665178571428572  C 30.292317708333336 6.212797619047619  31.583550347222225 8.076636904761902  32.550130208333336 10.256696428571427  Z " stroke-width="0" stroke-dasharray="0" stroke="rgba(255, 255, 255, 0)" fill="none" transform="matrix(1 0 0 1 936 20 )" class="stroke" mask="url(#Clip28)" />
    <path d="M 20.552734375 12.890625  C 21.519314236111114 13.865327380952376  22.002604166666664 15.044642857142856  22.002604166666664 16.428571428571427  C 22.002604166666664 17.8125  21.519314236111114 18.991815476190474  20.552734375 19.966517857142854  C 19.58615451388889 20.941220238095237  18.416666666666664 21.428571428571427  17.044270833333336 21.428571428571427  C 15.671875 21.428571428571427  14.502387152777779 20.941220238095237  13.535807291666668 19.966517857142854  C 12.569227430555557 18.991815476190474  12.0859375 17.8125  12.0859375 16.428571428571427  C 12.0859375 15.044642857142856  12.569227430555557 13.865327380952376  13.535807291666668 12.890625  C 14.502387152777779 11.915922619047619  15.671875 11.428571428571427  17.044270833333336 11.428571428571427  C 18.416666666666664 11.428571428571427  19.58615451388889 11.915922619047619  20.552734375 12.890625  Z " stroke-width="0" stroke-dasharray="0" stroke="rgba(255, 255, 255, 0)" fill="none" transform="matrix(1 0 0 1 936 20 )" class="stroke" mask="url(#Clip28)" />
    <path d="M 26.772786458333336 11.261160714285715  C 27.842664930555557 13.054315476190474  28.377604166666664 15.014880952380949  28.377604166666664 17.142857142857146  C 28.377604166666664 18.95833333333333  27.98285590277778 20.658482142857146  27.193359375 22.243303571428573  C 26.403862847222225 23.828125  25.322916666666664 25.148809523809522  23.950520833333336 26.205357142857146  C 23.83246527777778 26.294642857142854  23.714409722222225 26.309523809523803  23.596354166666664 26.25  C 23.478298611111114 26.190476190476186  23.404513888888893 26.086309523809522  23.375 25.9375  C 23.286458333333336 25.163690476190474  23.072482638888893 24.47916666666666  22.733072916666664 23.883928571428573  C 22.629774305555557 23.735119047619047  22.651909722222225 23.586309523809526  22.799479166666664 23.4375  C 23.655381944444446 22.633928571428573  24.326822916666664 21.688988095238095  24.813802083333336 20.602678571428573  C 25.30078125 19.516369047619047  25.544270833333336 18.363095238095237  25.544270833333336 17.142857142857146  C 25.544270833333336 15.491071428571427  25.112630208333336 13.973214285714285  24.249348958333336 12.589285714285715  C 23.386067708333336 11.205357142857144  22.223958333333336 10.15252976190476  20.763020833333336 9.430803571428573  C 19.302083333333336 8.709077380952376  17.737847222222225 8.4375  16.0703125 8.616071428571427  C 14.10763888888889 8.839285714285715  12.41796875 9.680059523809522  11.001302083333332 11.138392857142856  C 9.584635416666668 12.59672619047619  8.780381944444445 14.31547619047619  8.588541666666668 16.294642857142854  C 8.440972222222223 17.663690476190474  8.614366319444445 18.973214285714285  9.108723958333332 20.22321428571429  C 9.603081597222223 21.47321428571429  10.329861111111112 22.544642857142854  11.2890625 23.4375  C 11.436631944444446 23.586309523809526  11.458767361111112 23.735119047619047  11.35546875 23.883928571428573  C 11.001302083333334 24.49404761904762  10.78732638888889 25.1860119047619  10.713541666666668 25.959821428571427  C 10.684027777777777 26.09375  10.610243055555557 26.190476190476186  10.4921875 26.25  C 10.374131944444445 26.309523809523803  10.25607638888889 26.294642857142854  10.138020833333332 26.205357142857146  C 8.736111111111112 25.10416666666666  7.640407986111112 23.742559523809522  6.850911458333334 22.12053571428571  C 6.061414930555556 20.4985119047619  5.681423611111112 18.757440476190474  5.7109375 16.897321428571427  C 5.755208333333334 14.947916666666664  6.264322916666666 13.132440476190474  7.23828125 11.450892857142856  C 8.212239583333334 9.769345238095234  9.518229166666668 8.418898809523805  11.15625 7.399553571428572  C 12.794270833333332 6.38020833333333  14.57248263888889 5.825892857142856  16.490885416666668 5.736607142857144  C 18.615885416666664 5.6324404761904745  20.593315972222225 6.078869047619047  22.423177083333336 7.075892857142856  C 24.253038194444446 8.072916666666664  25.702907986111114 9.468005952380949  26.772786458333336 11.261160714285715  Z " stroke-width="0" stroke-dasharray="0" stroke="rgba(255, 255, 255, 0)" fill="none" transform="matrix(1 0 0 1 936 20 )" class="stroke" mask="url(#Clip28)" />
  </g>
</svg>