<?xml version="1.0" encoding="utf-8"?>
<svg version="1.1" xmlns:xlink="http://www.w3.org/1999/xlink" width="40px" height="40px" xmlns="http://www.w3.org/2000/svg">
  <defs>
    <pattern id="BGPattern" patternUnits="userSpaceOnUse" alignment="0 0" imageRepeat="None" />
    <mask fill="white" id="Clip15">
      <path d="M 23.098958333333336 10.234375  C 23.255208333333336 10.390625  23.333333333333336 10.590277777777771  23 10.833333333333336  L 23 22.5  C 23.333333333333336 22.743055555555554  23.255208333333336 22.94270833333333  23.098958333333336 23.09895833333333  C 22.942708333333336 23.25520833333333  22.743055555555557 23.33333333333333  22.5 23.33333333333333  L 14.166666666666668 23.33333333333333  C 13.923611111111114 23.33333333333333  13.723958333333332 23.25520833333333  13.567708333333332 23.09895833333333  C 13.411458333333332 22.94270833333333  13.333333333333332 22.743055555555554  13.333333333333332 22.5  L 13.333333333333332 20.83333333333333  C 13.333333333333332 20.59027777777778  13.411458333333332 20.390625  13.567708333333332 20.234375  C 13.723958333333332 20.078125  13.923611111111114 20  14.166666666666668 20  L 20 20  L 20 10.833333333333336  C 20 10.590277777777771  20.078125 10.390625  20.234375 10.234375  C 20.390625000000004 10.078125  20.590277777777782 10  20.833333333333336 10  L 22.5 10  C 22.743055555555557 10  22.942708333333336 10.078125  23.098958333333336 10.234375  Z M 32.265625 27.109375  C 33.532986111111114 24.939236111111107  34.166666666666664 22.569444444444446  34.166666666666664 20  C 34.166666666666664 17.430555555555554  33.532986111111114 15.06076388888889  32.265625 12.890625  C 30.998263888888893 10.720486111111107  29.279513888888893 9.001736111111107  27.109375 7.734375  C 24.93923611111111 6.467013888888888  22.569444444444446 5.833333333333335  20 5.833333333333335  C 17.430555555555557 5.833333333333335  15.060763888888891 6.467013888888888  12.890625 7.734375  C 10.72048611111111 9.001736111111107  9.00173611111111 10.720486111111107  7.734375 12.890625  C 6.467013888888889 15.06076388888889  5.833333333333334 17.430555555555554  5.833333333333334 20  C 5.833333333333334 22.569444444444446  6.467013888888889 24.939236111111107  7.734375 27.109375  C 9.00173611111111 29.279513888888886  10.72048611111111 30.99826388888889  12.890625 32.265625  C 15.060763888888891 33.532986111111114  17.430555555555557 34.166666666666664  20 34.166666666666664  C 22.569444444444446 34.166666666666664  24.93923611111111 33.532986111111114  27.109375 32.265625  C 29.279513888888893 30.99826388888889  30.998263888888893 29.279513888888886  32.265625 27.109375  Z M 37.317708333333336 9.9609375  C 39.10590277777777 13.025173611111107  40 16.37152777777777  40 20  C 40 23.62847222222222  39.10590277777777 26.974826388888886  37.317708333333336 30.0390625  C 35.52951388888889 33.103298611111114  33.103298611111114 35.529513888888886  30.0390625 37.317708333333336  C 26.974826388888893 39.10590277777778  23.62847222222222 40  20 40  C 16.37152777777778 40  13.02517361111111 39.10590277777778  9.9609375 37.317708333333336  C 6.896701388888889 35.529513888888886  4.470486111111112 33.103298611111114  2.682291666666667 30.0390625  C 0.8940972222222221 26.974826388888886  0 23.62847222222222  0 20  C 0 16.37152777777777  0.8940972222222221 13.025173611111107  2.682291666666667 9.9609375  C 4.470486111111112 6.896701388888888  6.896701388888889 4.470486111111107  9.9609375 2.682291666666665  C 13.02517361111111 0.8940972222222188  16.37152777777778 0  20 0  C 23.62847222222222 0  26.974826388888893 0.8940972222222188  30.0390625 2.682291666666665  C 33.103298611111114 4.470486111111107  35.52951388888889 6.896701388888888  37.317708333333336 9.9609375  Z " fill-rule="evenodd" />
    </mask>
  </defs>
  <g transform="matrix(1 0 0 1 -65 -135 )">
    <path d="M 23.098958333333336 10.234375  C 23.255208333333336 10.390625  23.333333333333336 10.590277777777771  23 10.833333333333336  L 23 22.5  C 23.333333333333336 22.743055555555554  23.255208333333336 22.94270833333333  23.098958333333336 23.09895833333333  C 22.942708333333336 23.25520833333333  22.743055555555557 23.33333333333333  22.5 23.33333333333333  L 14.166666666666668 23.33333333333333  C 13.923611111111114 23.33333333333333  13.723958333333332 23.25520833333333  13.567708333333332 23.09895833333333  C 13.411458333333332 22.94270833333333  13.333333333333332 22.743055555555554  13.333333333333332 22.5  L 13.333333333333332 20.83333333333333  C 13.333333333333332 20.59027777777778  13.411458333333332 20.390625  13.567708333333332 20.234375  C 13.723958333333332 20.078125  13.923611111111114 20  14.166666666666668 20  L 20 20  L 20 10.833333333333336  C 20 10.590277777777771  20.078125 10.390625  20.234375 10.234375  C 20.390625000000004 10.078125  20.590277777777782 10  20.833333333333336 10  L 22.5 10  C 22.743055555555557 10  22.942708333333336 10.078125  23.098958333333336 10.234375  Z M 32.265625 27.109375  C 33.532986111111114 24.939236111111107  34.166666666666664 22.569444444444446  34.166666666666664 20  C 34.166666666666664 17.430555555555554  33.532986111111114 15.06076388888889  32.265625 12.890625  C 30.998263888888893 10.720486111111107  29.279513888888893 9.001736111111107  27.109375 7.734375  C 24.93923611111111 6.467013888888888  22.569444444444446 5.833333333333335  20 5.833333333333335  C 17.430555555555557 5.833333333333335  15.060763888888891 6.467013888888888  12.890625 7.734375  C 10.72048611111111 9.001736111111107  9.00173611111111 10.720486111111107  7.734375 12.890625  C 6.467013888888889 15.06076388888889  5.833333333333334 17.430555555555554  5.833333333333334 20  C 5.833333333333334 22.569444444444446  6.467013888888889 24.939236111111107  7.734375 27.109375  C 9.00173611111111 29.279513888888886  10.72048611111111 30.99826388888889  12.890625 32.265625  C 15.060763888888891 33.532986111111114  17.430555555555557 34.166666666666664  20 34.166666666666664  C 22.569444444444446 34.166666666666664  24.93923611111111 33.532986111111114  27.109375 32.265625  C 29.279513888888893 30.99826388888889  30.998263888888893 29.279513888888886  32.265625 27.109375  Z M 37.317708333333336 9.9609375  C 39.10590277777777 13.025173611111107  40 16.37152777777777  40 20  C 40 23.62847222222222  39.10590277777777 26.974826388888886  37.317708333333336 30.0390625  C 35.52951388888889 33.103298611111114  33.103298611111114 35.529513888888886  30.0390625 37.317708333333336  C 26.974826388888893 39.10590277777778  23.62847222222222 40  20 40  C 16.37152777777778 40  13.02517361111111 39.10590277777778  9.9609375 37.317708333333336  C 6.896701388888889 35.529513888888886  4.470486111111112 33.103298611111114  2.682291666666667 30.0390625  C 0.8940972222222221 26.974826388888886  0 23.62847222222222  0 20  C 0 16.37152777777777  0.8940972222222221 13.025173611111107  2.682291666666667 9.9609375  C 4.470486111111112 6.896701388888888  6.896701388888889 4.470486111111107  9.9609375 2.682291666666665  C 13.02517361111111 0.8940972222222188  16.37152777777778 0  20 0  C 23.62847222222222 0  26.974826388888893 0.8940972222222188  30.0390625 2.682291666666665  C 33.103298611111114 4.470486111111107  35.52951388888889 6.896701388888888  37.317708333333336 9.9609375  Z " fill-rule="nonzero" fill="rgba(33, 37, 41, 1)" stroke="none" transform="matrix(1 0 0 1 65 135 )" class="fill" />
    <path d="M 23.098958333333336 10.234375  C 23.255208333333336 10.390625  23.333333333333336 10.590277777777771  23 10.833333333333336  L 23 22.5  C 23.333333333333336 22.743055555555554  23.255208333333336 22.94270833333333  23.098958333333336 23.09895833333333  C 22.942708333333336 23.25520833333333  22.743055555555557 23.33333333333333  22.5 23.33333333333333  L 14.166666666666668 23.33333333333333  C 13.923611111111114 23.33333333333333  13.723958333333332 23.25520833333333  13.567708333333332 23.09895833333333  C 13.411458333333332 22.94270833333333  13.333333333333332 22.743055555555554  13.333333333333332 22.5  L 13.333333333333332 20.83333333333333  C 13.333333333333332 20.59027777777778  13.411458333333332 20.390625  13.567708333333332 20.234375  C 13.723958333333332 20.078125  13.923611111111114 20  14.166666666666668 20  L 20 20  L 20 10.833333333333336  C 20 10.590277777777771  20.078125 10.390625  20.234375 10.234375  C 20.390625000000004 10.078125  20.590277777777782 10  20.833333333333336 10  L 22.5 10  C 22.743055555555557 10  22.942708333333336 10.078125  23.098958333333336 10.234375  Z " stroke-width="0" stroke-dasharray="0" stroke="rgba(255, 255, 255, 0)" fill="none" transform="matrix(1 0 0 1 65 135 )" class="stroke" mask="url(#Clip15)" />
    <path d="M 32.265625 27.109375  C 33.532986111111114 24.939236111111107  34.166666666666664 22.569444444444446  34.166666666666664 20  C 34.166666666666664 17.430555555555554  33.532986111111114 15.06076388888889  32.265625 12.890625  C 30.998263888888893 10.720486111111107  29.279513888888893 9.001736111111107  27.109375 7.734375  C 24.93923611111111 6.467013888888888  22.569444444444446 5.833333333333335  20 5.833333333333335  C 17.430555555555557 5.833333333333335  15.060763888888891 6.467013888888888  12.890625 7.734375  C 10.72048611111111 9.001736111111107  9.00173611111111 10.720486111111107  7.734375 12.890625  C 6.467013888888889 15.06076388888889  5.833333333333334 17.430555555555554  5.833333333333334 20  C 5.833333333333334 22.569444444444446  6.467013888888889 24.939236111111107  7.734375 27.109375  C 9.00173611111111 29.279513888888886  10.72048611111111 30.99826388888889  12.890625 32.265625  C 15.060763888888891 33.532986111111114  17.430555555555557 34.166666666666664  20 34.166666666666664  C 22.569444444444446 34.166666666666664  24.93923611111111 33.532986111111114  27.109375 32.265625  C 29.279513888888893 30.99826388888889  30.998263888888893 29.279513888888886  32.265625 27.109375  Z " stroke-width="0" stroke-dasharray="0" stroke="rgba(255, 255, 255, 0)" fill="none" transform="matrix(1 0 0 1 65 135 )" class="stroke" mask="url(#Clip15)" />
    <path d="M 37.317708333333336 9.9609375  C 39.10590277777777 13.025173611111107  40 16.37152777777777  40 20  C 40 23.62847222222222  39.10590277777777 26.974826388888886  37.317708333333336 30.0390625  C 35.52951388888889 33.103298611111114  33.103298611111114 35.529513888888886  30.0390625 37.317708333333336  C 26.974826388888893 39.10590277777778  23.62847222222222 40  20 40  C 16.37152777777778 40  13.02517361111111 39.10590277777778  9.9609375 37.317708333333336  C 6.896701388888889 35.529513888888886  4.470486111111112 33.103298611111114  2.682291666666667 30.0390625  C 0.8940972222222221 26.974826388888886  0 23.62847222222222  0 20  C 0 16.37152777777777  0.8940972222222221 13.025173611111107  2.682291666666667 9.9609375  C 4.470486111111112 6.896701388888888  6.896701388888889 4.470486111111107  9.9609375 2.682291666666665  C 13.02517361111111 0.8940972222222188  16.37152777777778 0  20 0  C 23.62847222222222 0  26.974826388888893 0.8940972222222188  30.0390625 2.682291666666665  C 33.103298611111114 4.470486111111107  35.52951388888889 6.896701388888888  37.317708333333336 9.9609375  Z " stroke-width="0" stroke-dasharray="0" stroke="rgba(255, 255, 255, 0)" fill="none" transform="matrix(1 0 0 1 65 135 )" class="stroke" mask="url(#Clip15)" />
  </g>
</svg>