<?xml version="1.0" encoding="utf-8"?>
<svg version="1.1" xmlns:xlink="http://www.w3.org/1999/xlink" width="40px" height="40px" xmlns="http://www.w3.org/2000/svg">
  <defs>
    <pattern id="BGPattern" patternUnits="userSpaceOnUse" alignment="0 0" imageRepeat="None" />
    <mask fill="white" id="Clip16">
      <path d="M 39.95741660752307 1.519886363636374  C 40.02365744026497 1.9081439393939377  39.962148095576055 2.282196969696969  39.772888573456356 2.6420454545454675  L 21.60397444996451 39.00568181818181  C 21.282233262361018 39.66856060606062  20.742843624319846 40  19.985805535841024 40  C 19.891175774781175 40  19.749231133191387 39.98106060606062  19.55997161107169 39.94318181818181  C 19.143600662408332 39.84848484848487  18.80766501064585 39.635416666666686  18.552164655784253 39.30397727272725  C 18.296664300922643 38.972537878787875  18.168914123491845 38.59848484848487  18.168914123491845 38.18181818181819  L 18.168914123491845 21.818181818181813  L 1.8168914123491788 21.818181818181813  C 1.4005204636858224 21.818181818181813  1.026732907499408 21.690340909090878  0.6955287437899216 21.434659090909122  C 0.3643245800804351 21.178977272727252  0.15140761769576727 20.842803030303003  0.056777856635918056 20.426136363636374  C -0.03785190442394537 20.00946969696969  0 19.611742424242436  0.17033356990773996 19.23295454545456  C 0.3406671398154657 18.854166666666686  0.6150934468890483 18.57007575757575  0.9936124911284594 18.380681818181813  L 23.888343371811757 6.925186146703567  L 37.331440738112136 0.19886363636362603  C 37.57747811686775 0.06628787878787534  37.851904423941335 0  38.154719659332855 0  C 38.66572036905606 0  39.09155429382541 0.17992424242424931  39.432221433640876 0.5397727272727195  C 39.71611071682044 0.8049242424242493  39.891175774781175 1.1316287878787818  39.95741660752307 1.519886363636374  Z " fill-rule="evenodd" />
    </mask>
  </defs>
  <g transform="matrix(1 0 0 1 -65 -211 )">
    <path d="M 39.95741660752307 1.519886363636374  C 40.02365744026497 1.9081439393939377  39.962148095576055 2.282196969696969  39.772888573456356 2.6420454545454675  L 21.60397444996451 39.00568181818181  C 21.282233262361018 39.66856060606062  20.742843624319846 40  19.985805535841024 40  C 19.891175774781175 40  19.749231133191387 39.98106060606062  19.55997161107169 39.94318181818181  C 19.143600662408332 39.84848484848487  18.80766501064585 39.635416666666686  18.552164655784253 39.30397727272725  C 18.296664300922643 38.972537878787875  18.168914123491845 38.59848484848487  18.168914123491845 38.18181818181819  L 18.168914123491845 21.818181818181813  L 1.8168914123491788 21.818181818181813  C 1.4005204636858224 21.818181818181813  1.026732907499408 21.690340909090878  0.6955287437899216 21.434659090909122  C 0.3643245800804351 21.178977272727252  0.15140761769576727 20.842803030303003  0.056777856635918056 20.426136363636374  C -0.03785190442394537 20.00946969696969  0 19.611742424242436  0.17033356990773996 19.23295454545456  C 0.3406671398154657 18.854166666666686  0.6150934468890483 18.57007575757575  0.9936124911284594 18.380681818181813  L 23.888343371811757 6.925186146703567  L 37.331440738112136 0.19886363636362603  C 37.57747811686775 0.06628787878787534  37.851904423941335 0  38.154719659332855 0  C 38.66572036905606 0  39.09155429382541 0.17992424242424931  39.432221433640876 0.5397727272727195  C 39.71611071682044 0.8049242424242493  39.891175774781175 1.1316287878787818  39.95741660752307 1.519886363636374  Z " fill-rule="nonzero" fill="rgba(33, 37, 41, 1)" stroke="none" transform="matrix(1 0 0 1 65 211 )" class="fill" />
    <path d="M 39.95741660752307 1.519886363636374  C 40.02365744026497 1.9081439393939377  39.962148095576055 2.282196969696969  39.772888573456356 2.6420454545454675  L 21.60397444996451 39.00568181818181  C 21.282233262361018 39.66856060606062  20.742843624319846 40  19.985805535841024 40  C 19.891175774781175 40  19.749231133191387 39.98106060606062  19.55997161107169 39.94318181818181  C 19.143600662408332 39.84848484848487  18.80766501064585 39.635416666666686  18.552164655784253 39.30397727272725  C 18.296664300922643 38.972537878787875  18.168914123491845 38.59848484848487  18.168914123491845 38.18181818181819  L 18.168914123491845 21.818181818181813  L 1.8168914123491788 21.818181818181813  C 1.4005204636858224 21.818181818181813  1.026732907499408 21.690340909090878  0.6955287437899216 21.434659090909122  C 0.3643245800804351 21.178977272727252  0.15140761769576727 20.842803030303003  0.056777856635918056 20.426136363636374  C -0.03785190442394537 20.00946969696969  0 19.611742424242436  0.17033356990773996 19.23295454545456  C 0.3406671398154657 18.854166666666686  0.6150934468890483 18.57007575757575  0.9936124911284594 18.380681818181813  L 23.888343371811757 6.925186146703567  L 37.331440738112136 0.19886363636362603  C 37.57747811686775 0.06628787878787534  37.851904423941335 0  38.154719659332855 0  C 38.66572036905606 0  39.09155429382541 0.17992424242424931  39.432221433640876 0.5397727272727195  C 39.71611071682044 0.8049242424242493  39.891175774781175 1.1316287878787818  39.95741660752307 1.519886363636374  Z " stroke-width="0" stroke-dasharray="0" stroke="rgba(255, 255, 255, 0)" fill="none" transform="matrix(1 0 0 1 65 211 )" class="stroke" mask="url(#Clip16)" />
  </g>
</svg>