<?xml version="1.0" encoding="utf-8"?>
<svg version="1.1" xmlns:xlink="http://www.w3.org/1999/xlink" width="40px" height="40px" xmlns="http://www.w3.org/2000/svg">
  <defs>
    <pattern id="BGPattern" patternUnits="userSpaceOnUse" alignment="0 0" imageRepeat="None" />
    <mask fill="white" id="Clip17">
      <path d="M 9.448071216617212 23.026706231454007  L 23.026706231454007 9.448071216617212  L 30.528189910979226 16.94955489614243  L 16.949554896142434 30.52818991097923  L 9.448071216617212 23.026706231454007  Z M 16.949554896142434 33.11572700296736  C 17.37685459940653 33.11572700296736  17.732937685459945 32.97329376854599  18.01780415430267 32.688427299703264  L 32.688427299703264 18.01780415430267  C 32.989119683481704 17.717111770524234  33.13946587537092 17.36102868447082  33.13946587537092 16.94955489614243  C 33.13946587537092 16.538081107814047  32.989119683481704 16.18199802176063  32.688427299703264 15.881305637982198  L 24.094955489614243 7.287833827893175  C 23.810089020771514 7.002967359050447  23.4540059347181 6.860534124629081  23.026706231454007 6.860534124629081  C 22.59940652818991 6.860534124629081  22.2433234421365 7.002967359050447  21.958456973293767 7.287833827893175  L 7.287833827893175 21.958456973293767  C 6.987141444114738 22.259149357072204  6.836795252225519 22.615232443125617  6.836795252225519 23.026706231454007  C 6.836795252225519 23.43818001978239  6.987141444114738 23.794263105835807  7.287833827893175 24.094955489614243  L 15.881305637982194 32.688427299703264  C 16.166172106824924 32.97329376854599  16.52225519287834 33.11572700296736  16.949554896142434 33.11572700296736  Z M 40 15.418397626112759  C 40 16.265084075173096  39.70722057368942 16.981206726013845  39.12166172106825 17.566765578635014  L 17.590504451038576 39.12166172106825  C 17.004945598417407 39.70722057368942  16.28882294757666 40  15.442136498516321 40  C 14.595450049455984 40  13.879327398615233 39.70722057368942  13.293768545994064 39.12166172106825  L 10.3026706231454 36.13056379821958  C 11.188921859545006 35.24431256181998  11.632047477744807 34.168150346191894  11.632047477744807 32.90207715133531  C 11.632047477744807 31.63600395647873  11.188921859545006 30.559841740850644  10.3026706231454 29.67359050445104  C 9.416419386745797 28.787339268051433  8.340257171117706 28.344213649851632  7.0741839762611285 28.344213649851632  C 5.808110781404551 28.344213649851632  4.7319485657764595 28.787339268051433  3.845697329376855 29.67359050445104  L 0.8783382789317508 26.682492581602375  C 0.2927794263105838 26.096933728981206  0 25.380811078140447  0 24.534124629080118  C 0 23.68743818001978  0.2927794263105838 22.97131552917903  0.8783382789317508 22.385756676557868  L 22.409495548961424 0.8783382789317518  C 22.995054401582596 0.29277942631058096  23.711177052423345 0  24.55786350148368 0  C 25.40454995054402 0  26.120672601384772 0.29277942631058096  26.706231454005934 0.8783382789317518  L 29.673590504451038 3.845697329376856  C 28.787339268051436 4.731948565776456  28.344213649851632 5.808110781404547  28.344213649851632 7.074183976261126  C 28.344213649851632 8.340257171117704  28.787339268051436 9.41641938674579  29.673590504451038 10.3026706231454  C 30.559841740850647 11.188921859545005  31.63600395647874 11.632047477744809  32.90207715133531 11.632047477744809  C 34.168150346191894 11.632047477744809  35.24431256181998 11.188921859545005  36.13056379821958 10.3026706231454  L 39.12166172106825 13.270029673590503  C 39.70722057368942 13.855588526211665  40 14.571711177052421  40 15.418397626112759  Z " fill-rule="evenodd" />
    </mask>
  </defs>
  <g transform="matrix(1 0 0 1 -72 -268 )">
    <path d="M 9.448071216617212 23.026706231454007  L 23.026706231454007 9.448071216617212  L 30.528189910979226 16.94955489614243  L 16.949554896142434 30.52818991097923  L 9.448071216617212 23.026706231454007  Z M 16.949554896142434 33.11572700296736  C 17.37685459940653 33.11572700296736  17.732937685459945 32.97329376854599  18.01780415430267 32.688427299703264  L 32.688427299703264 18.01780415430267  C 32.989119683481704 17.717111770524234  33.13946587537092 17.36102868447082  33.13946587537092 16.94955489614243  C 33.13946587537092 16.538081107814047  32.989119683481704 16.18199802176063  32.688427299703264 15.881305637982198  L 24.094955489614243 7.287833827893175  C 23.810089020771514 7.002967359050447  23.4540059347181 6.860534124629081  23.026706231454007 6.860534124629081  C 22.59940652818991 6.860534124629081  22.2433234421365 7.002967359050447  21.958456973293767 7.287833827893175  L 7.287833827893175 21.958456973293767  C 6.987141444114738 22.259149357072204  6.836795252225519 22.615232443125617  6.836795252225519 23.026706231454007  C 6.836795252225519 23.43818001978239  6.987141444114738 23.794263105835807  7.287833827893175 24.094955489614243  L 15.881305637982194 32.688427299703264  C 16.166172106824924 32.97329376854599  16.52225519287834 33.11572700296736  16.949554896142434 33.11572700296736  Z M 40 15.418397626112759  C 40 16.265084075173096  39.70722057368942 16.981206726013845  39.12166172106825 17.566765578635014  L 17.590504451038576 39.12166172106825  C 17.004945598417407 39.70722057368942  16.28882294757666 40  15.442136498516321 40  C 14.595450049455984 40  13.879327398615233 39.70722057368942  13.293768545994064 39.12166172106825  L 10.3026706231454 36.13056379821958  C 11.188921859545006 35.24431256181998  11.632047477744807 34.168150346191894  11.632047477744807 32.90207715133531  C 11.632047477744807 31.63600395647873  11.188921859545006 30.559841740850644  10.3026706231454 29.67359050445104  C 9.416419386745797 28.787339268051433  8.340257171117706 28.344213649851632  7.0741839762611285 28.344213649851632  C 5.808110781404551 28.344213649851632  4.7319485657764595 28.787339268051433  3.845697329376855 29.67359050445104  L 0.8783382789317508 26.682492581602375  C 0.2927794263105838 26.096933728981206  0 25.380811078140447  0 24.534124629080118  C 0 23.68743818001978  0.2927794263105838 22.97131552917903  0.8783382789317508 22.385756676557868  L 22.409495548961424 0.8783382789317518  C 22.995054401582596 0.29277942631058096  23.711177052423345 0  24.55786350148368 0  C 25.40454995054402 0  26.120672601384772 0.29277942631058096  26.706231454005934 0.8783382789317518  L 29.673590504451038 3.845697329376856  C 28.787339268051436 4.731948565776456  28.344213649851632 5.808110781404547  28.344213649851632 7.074183976261126  C 28.344213649851632 8.340257171117704  28.787339268051436 9.41641938674579  29.673590504451038 10.3026706231454  C 30.559841740850647 11.188921859545005  31.63600395647874 11.632047477744809  32.90207715133531 11.632047477744809  C 34.168150346191894 11.632047477744809  35.24431256181998 11.188921859545005  36.13056379821958 10.3026706231454  L 39.12166172106825 13.270029673590503  C 39.70722057368942 13.855588526211665  40 14.571711177052421  40 15.418397626112759  Z " fill-rule="nonzero" fill="rgba(33, 37, 41, 1)" stroke="none" transform="matrix(1 0 0 1 72 268 )" class="fill" />
    <path d="M 9.448071216617212 23.026706231454007  L 23.026706231454007 9.448071216617212  L 30.528189910979226 16.94955489614243  L 16.949554896142434 30.52818991097923  L 9.448071216617212 23.026706231454007  Z " stroke-width="0" stroke-dasharray="0" stroke="rgba(255, 255, 255, 0)" fill="none" transform="matrix(1 0 0 1 72 268 )" class="stroke" mask="url(#Clip17)" />
    <path d="M 16.949554896142434 33.11572700296736  C 17.37685459940653 33.11572700296736  17.732937685459945 32.97329376854599  18.01780415430267 32.688427299703264  L 32.688427299703264 18.01780415430267  C 32.989119683481704 17.717111770524234  33.13946587537092 17.36102868447082  33.13946587537092 16.94955489614243  C 33.13946587537092 16.538081107814047  32.989119683481704 16.18199802176063  32.688427299703264 15.881305637982198  L 24.094955489614243 7.287833827893175  C 23.810089020771514 7.002967359050447  23.4540059347181 6.860534124629081  23.026706231454007 6.860534124629081  C 22.59940652818991 6.860534124629081  22.2433234421365 7.002967359050447  21.958456973293767 7.287833827893175  L 7.287833827893175 21.958456973293767  C 6.987141444114738 22.259149357072204  6.836795252225519 22.615232443125617  6.836795252225519 23.026706231454007  C 6.836795252225519 23.43818001978239  6.987141444114738 23.794263105835807  7.287833827893175 24.094955489614243  L 15.881305637982194 32.688427299703264  C 16.166172106824924 32.97329376854599  16.52225519287834 33.11572700296736  16.949554896142434 33.11572700296736  Z " stroke-width="0" stroke-dasharray="0" stroke="rgba(255, 255, 255, 0)" fill="none" transform="matrix(1 0 0 1 72 268 )" class="stroke" mask="url(#Clip17)" />
    <path d="M 40 15.418397626112759  C 40 16.265084075173096  39.70722057368942 16.981206726013845  39.12166172106825 17.566765578635014  L 17.590504451038576 39.12166172106825  C 17.004945598417407 39.70722057368942  16.28882294757666 40  15.442136498516321 40  C 14.595450049455984 40  13.879327398615233 39.70722057368942  13.293768545994064 39.12166172106825  L 10.3026706231454 36.13056379821958  C 11.188921859545006 35.24431256181998  11.632047477744807 34.168150346191894  11.632047477744807 32.90207715133531  C 11.632047477744807 31.63600395647873  11.188921859545006 30.559841740850644  10.3026706231454 29.67359050445104  C 9.416419386745797 28.787339268051433  8.340257171117706 28.344213649851632  7.0741839762611285 28.344213649851632  C 5.808110781404551 28.344213649851632  4.7319485657764595 28.787339268051433  3.845697329376855 29.67359050445104  L 0.8783382789317508 26.682492581602375  C 0.2927794263105838 26.096933728981206  0 25.380811078140447  0 24.534124629080118  C 0 23.68743818001978  0.2927794263105838 22.97131552917903  0.8783382789317508 22.385756676557868  L 22.409495548961424 0.8783382789317518  C 22.995054401582596 0.29277942631058096  23.711177052423345 0  24.55786350148368 0  C 25.40454995054402 0  26.120672601384772 0.29277942631058096  26.706231454005934 0.8783382789317518  L 29.673590504451038 3.845697329376856  C 28.787339268051436 4.731948565776456  28.344213649851632 5.808110781404547  28.344213649851632 7.074183976261126  C 28.344213649851632 8.340257171117704  28.787339268051436 9.41641938674579  29.673590504451038 10.3026706231454  C 30.559841740850647 11.188921859545005  31.63600395647874 11.632047477744809  32.90207715133531 11.632047477744809  C 34.168150346191894 11.632047477744809  35.24431256181998 11.188921859545005  36.13056379821958 10.3026706231454  L 39.12166172106825 13.270029673590503  C 39.70722057368942 13.855588526211665  40 14.571711177052421  40 15.418397626112759  Z " stroke-width="0" stroke-dasharray="0" stroke="rgba(255, 255, 255, 0)" fill="none" transform="matrix(1 0 0 1 72 268 )" class="stroke" mask="url(#Clip17)" />
  </g>
</svg>