<?xml version="1.0" encoding="utf-8"?>
<svg version="1.1" xmlns:xlink="http://www.w3.org/1999/xlink" width="60px" height="60px" xmlns="http://www.w3.org/2000/svg">
  <defs>
    <pattern id="BGPattern" patternUnits="userSpaceOnUse" alignment="0 0" imageRepeat="None" />
    <mask fill="white" id="Clip19">
      <path d="M 43.59375 52.66540642722117  L 40.99759615384615 36.748582230623825  L 52.03125 25.51984877126654  L 36.81490384615385 23.1758034026465  L 30 8.73345935727788  L 23.185096153846153 23.1758034026465  L 7.96875 25.51984877126654  L 19.002403846153847 36.748582230623825  L 16.370192307692307 52.66540642722117  L 30 45.14177693761815  L 43.59375 52.66540642722117  Z M 57.98076923076923 21.512287334593573  C 59.32692307692308 21.739130434782613  60 22.318840579710145  60 23.251417769376182  C 60 23.80592312539382  59.68750000000001 24.41083805923125  59.0625 25.06616257088847  L 45.97355769230769 38.449905482041586  L 49.07451923076923 57.353497164461245  C 49.09855769230769 57.529930686830504  49.11057692307693 57.78197857592942  49.11057692307693 58.109640831758036  C 49.11057692307693 59.369880277252676  48.61778846153847 60  47.63221153846154 60  C 47.175480769230774 60  46.69471153846154 59.848771266540645  46.18990384615385 59.54631379962193  L 30 50.62381852551985  L 13.810096153846153 59.54631379962193  C 13.281250000000002 59.848771266540645  12.800480769230768 60  12.367788461538462 60  C 11.862980769230768 60  11.484375 59.81726528040328  11.231971153846153 59.45179584120983  C 10.979567307692308 59.08632640201638  10.853365384615385 58.63894139886578  10.853365384615385 58.109640831758036  C 10.853365384615385 57.95841209829868  10.877403846153847 57.70636420919975  10.925480769230768 57.353497164461245  L 14.026442307692308 38.449905482041586  L 0.9014423076923077 25.06616257088847  C 0.3004807692307692 24.38563327032136  0 23.780718336483936  0 23.251417769376182  C 0 22.318840579710145  0.673076923076923 21.739130434782613  2.019230769230769 21.512287334593573  L 20.120192307692307 18.7523629489603  L 28.233173076923077 1.5500945179584091  C 28.68990384615385 0.5166981726528008  29.278846153846153 0  30 0  C 30.721153846153843 0  31.310096153846153 0.5166981726528008  31.766826923076927 1.5500945179584091  L 39.87980769230769 18.7523629489603  L 57.98076923076923 21.512287334593573  Z " fill-rule="evenodd" />
    </mask>
  </defs>
  <g transform="matrix(1 0 0 1 -201 -526 )">
    <path d="M 43.59375 52.66540642722117  L 40.99759615384615 36.748582230623825  L 52.03125 25.51984877126654  L 36.81490384615385 23.1758034026465  L 30 8.73345935727788  L 23.185096153846153 23.1758034026465  L 7.96875 25.51984877126654  L 19.002403846153847 36.748582230623825  L 16.370192307692307 52.66540642722117  L 30 45.14177693761815  L 43.59375 52.66540642722117  Z M 57.98076923076923 21.512287334593573  C 59.32692307692308 21.739130434782613  60 22.318840579710145  60 23.251417769376182  C 60 23.80592312539382  59.68750000000001 24.41083805923125  59.0625 25.06616257088847  L 45.97355769230769 38.449905482041586  L 49.07451923076923 57.353497164461245  C 49.09855769230769 57.529930686830504  49.11057692307693 57.78197857592942  49.11057692307693 58.109640831758036  C 49.11057692307693 59.369880277252676  48.61778846153847 60  47.63221153846154 60  C 47.175480769230774 60  46.69471153846154 59.848771266540645  46.18990384615385 59.54631379962193  L 30 50.62381852551985  L 13.810096153846153 59.54631379962193  C 13.281250000000002 59.848771266540645  12.800480769230768 60  12.367788461538462 60  C 11.862980769230768 60  11.484375 59.81726528040328  11.231971153846153 59.45179584120983  C 10.979567307692308 59.08632640201638  10.853365384615385 58.63894139886578  10.853365384615385 58.109640831758036  C 10.853365384615385 57.95841209829868  10.877403846153847 57.70636420919975  10.925480769230768 57.353497164461245  L 14.026442307692308 38.449905482041586  L 0.9014423076923077 25.06616257088847  C 0.3004807692307692 24.38563327032136  0 23.780718336483936  0 23.251417769376182  C 0 22.318840579710145  0.673076923076923 21.739130434782613  2.019230769230769 21.512287334593573  L 20.120192307692307 18.7523629489603  L 28.233173076923077 1.5500945179584091  C 28.68990384615385 0.5166981726528008  29.278846153846153 0  30 0  C 30.721153846153843 0  31.310096153846153 0.5166981726528008  31.766826923076927 1.5500945179584091  L 39.87980769230769 18.7523629489603  L 57.98076923076923 21.512287334593573  Z " fill-rule="nonzero" fill="rgba(15, 246, 246, 1)" stroke="none" transform="matrix(1 0 0 1 201 526 )" class="fill" />
    <path d="M 43.59375 52.66540642722117  L 40.99759615384615 36.748582230623825  L 52.03125 25.51984877126654  L 36.81490384615385 23.1758034026465  L 30 8.73345935727788  L 23.185096153846153 23.1758034026465  L 7.96875 25.51984877126654  L 19.002403846153847 36.748582230623825  L 16.370192307692307 52.66540642722117  L 30 45.14177693761815  L 43.59375 52.66540642722117  Z " stroke-width="0" stroke-dasharray="0" stroke="rgba(255, 255, 255, 0)" fill="none" transform="matrix(1 0 0 1 201 526 )" class="stroke" mask="url(#Clip19)" />
    <path d="M 57.98076923076923 21.512287334593573  C 59.32692307692308 21.739130434782613  60 22.318840579710145  60 23.251417769376182  C 60 23.80592312539382  59.68750000000001 24.41083805923125  59.0625 25.06616257088847  L 45.97355769230769 38.449905482041586  L 49.07451923076923 57.353497164461245  C 49.09855769230769 57.529930686830504  49.11057692307693 57.78197857592942  49.11057692307693 58.109640831758036  C 49.11057692307693 59.369880277252676  48.61778846153847 60  47.63221153846154 60  C 47.175480769230774 60  46.69471153846154 59.848771266540645  46.18990384615385 59.54631379962193  L 30 50.62381852551985  L 13.810096153846153 59.54631379962193  C 13.281250000000002 59.848771266540645  12.800480769230768 60  12.367788461538462 60  C 11.862980769230768 60  11.484375 59.81726528040328  11.231971153846153 59.45179584120983  C 10.979567307692308 59.08632640201638  10.853365384615385 58.63894139886578  10.853365384615385 58.109640831758036  C 10.853365384615385 57.95841209829868  10.877403846153847 57.70636420919975  10.925480769230768 57.353497164461245  L 14.026442307692308 38.449905482041586  L 0.9014423076923077 25.06616257088847  C 0.3004807692307692 24.38563327032136  0 23.780718336483936  0 23.251417769376182  C 0 22.318840579710145  0.673076923076923 21.739130434782613  2.019230769230769 21.512287334593573  L 20.120192307692307 18.7523629489603  L 28.233173076923077 1.5500945179584091  C 28.68990384615385 0.5166981726528008  29.278846153846153 0  30 0  C 30.721153846153843 0  31.310096153846153 0.5166981726528008  31.766826923076927 1.5500945179584091  L 39.87980769230769 18.7523629489603  L 57.98076923076923 21.512287334593573  Z " stroke-width="0" stroke-dasharray="0" stroke="rgba(255, 255, 255, 0)" fill="none" transform="matrix(1 0 0 1 201 526 )" class="stroke" mask="url(#Clip19)" />
  </g>
</svg>