<?xml version="1.0" encoding="utf-8"?>
<svg version="1.1" xmlns:xlink="http://www.w3.org/1999/xlink" width="60px" height="60px" xmlns="http://www.w3.org/2000/svg">
  <defs>
    <pattern id="BGPattern" patternUnits="userSpaceOnUse" alignment="0 0" imageRepeat="None" />
    <mask fill="white" id="Clip20">
      <path d="M 40.99759615384615 36.748582230623825  L 42.76442307692307 34.97164461247637  L 52.03125 25.51984877126654  L 39.19471153846154 23.553875236294896  L 36.81490384615385 23.1758034026465  L 35.73317307692307 20.90737240075614  L 30 8.73345935727788  L 30 45.14177693761815  L 32.12740384615385 46.31379962192817  L 43.59375 52.66540642722117  L 41.43028846153846 39.24385633270322  L 40.99759615384615 36.748582230623825  Z M 59.92788461538461 22.81663516068053  C 60.144230769230774 23.50976685570258  59.85576923076924 24.25960932577189  59.0625 25.06616257088847  L 45.97355769230769 38.449905482041586  L 49.07451923076923 57.353497164461245  C 49.19471153846154 58.18525519848772  49.12259615384616 58.83427851291746  48.85817307692307 59.30056710775047  C 48.59375 59.76685570258349  48.18509615384616 60  47.63221153846154 60  C 47.22355769230769 60  46.74278846153847 59.848771266540645  46.18990384615385 59.54631379962193  L 30 50.62381852551985  L 13.810096153846153 59.54631379962193  C 13.25721153846154 59.848771266540645  12.776442307692308 60  12.367788461538462 60  C 11.814903846153847 60  11.406250000000002 59.76685570258349  11.141826923076923 59.30056710775047  C 10.877403846153847 58.83427851291746  10.805288461538462 58.18525519848772  10.925480769230768 57.353497164461245  L 14.026442307692308 38.449905482041586  L 0.9014423076923077 25.06616257088847  C 0.1322115384615384 24.25960932577189  -0.14423076923076925 23.50976685570258  0.07211538461538462 22.81663516068053  C 0.2884615384615385 22.123503465658473  0.9375 21.688720856962824  2.019230769230769 21.512287334593573  L 20.120192307692307 18.7523629489603  L 28.233173076923077 1.5500945179584091  C 28.71394230769231 0.5166981726528008  29.302884615384617 0  30 0  C 30.673076923076927 0  31.26201923076923 0.5166981726528008  31.766826923076927 1.5500945179584091  L 39.87980769230769 18.7523629489603  L 57.98076923076923 21.512287334593573  C 59.06250000000001 21.688720856962824  59.71153846153847 22.123503465658473  59.92788461538461 22.81663516068053  Z " fill-rule="evenodd" />
    </mask>
  </defs>
  <g transform="matrix(1 0 0 1 -590 -526 )">
    <path d="M 40.99759615384615 36.748582230623825  L 42.76442307692307 34.97164461247637  L 52.03125 25.51984877126654  L 39.19471153846154 23.553875236294896  L 36.81490384615385 23.1758034026465  L 35.73317307692307 20.90737240075614  L 30 8.73345935727788  L 30 45.14177693761815  L 32.12740384615385 46.31379962192817  L 43.59375 52.66540642722117  L 41.43028846153846 39.24385633270322  L 40.99759615384615 36.748582230623825  Z M 59.92788461538461 22.81663516068053  C 60.144230769230774 23.50976685570258  59.85576923076924 24.25960932577189  59.0625 25.06616257088847  L 45.97355769230769 38.449905482041586  L 49.07451923076923 57.353497164461245  C 49.19471153846154 58.18525519848772  49.12259615384616 58.83427851291746  48.85817307692307 59.30056710775047  C 48.59375 59.76685570258349  48.18509615384616 60  47.63221153846154 60  C 47.22355769230769 60  46.74278846153847 59.848771266540645  46.18990384615385 59.54631379962193  L 30 50.62381852551985  L 13.810096153846153 59.54631379962193  C 13.25721153846154 59.848771266540645  12.776442307692308 60  12.367788461538462 60  C 11.814903846153847 60  11.406250000000002 59.76685570258349  11.141826923076923 59.30056710775047  C 10.877403846153847 58.83427851291746  10.805288461538462 58.18525519848772  10.925480769230768 57.353497164461245  L 14.026442307692308 38.449905482041586  L 0.9014423076923077 25.06616257088847  C 0.1322115384615384 24.25960932577189  -0.14423076923076925 23.50976685570258  0.07211538461538462 22.81663516068053  C 0.2884615384615385 22.123503465658473  0.9375 21.688720856962824  2.019230769230769 21.512287334593573  L 20.120192307692307 18.7523629489603  L 28.233173076923077 1.5500945179584091  C 28.71394230769231 0.5166981726528008  29.302884615384617 0  30 0  C 30.673076923076927 0  31.26201923076923 0.5166981726528008  31.766826923076927 1.5500945179584091  L 39.87980769230769 18.7523629489603  L 57.98076923076923 21.512287334593573  C 59.06250000000001 21.688720856962824  59.71153846153847 22.123503465658473  59.92788461538461 22.81663516068053  Z " fill-rule="nonzero" fill="rgba(15, 246, 246, 1)" stroke="none" transform="matrix(1 0 0 1 590 526 )" class="fill" />
    <path d="M 40.99759615384615 36.748582230623825  L 42.76442307692307 34.97164461247637  L 52.03125 25.51984877126654  L 39.19471153846154 23.553875236294896  L 36.81490384615385 23.1758034026465  L 35.73317307692307 20.90737240075614  L 30 8.73345935727788  L 30 45.14177693761815  L 32.12740384615385 46.31379962192817  L 43.59375 52.66540642722117  L 41.43028846153846 39.24385633270322  L 40.99759615384615 36.748582230623825  Z " stroke-width="0" stroke-dasharray="0" stroke="rgba(255, 255, 255, 0)" fill="none" transform="matrix(1 0 0 1 590 526 )" class="stroke" mask="url(#Clip20)" />
    <path d="M 59.92788461538461 22.81663516068053  C 60.144230769230774 23.50976685570258  59.85576923076924 24.25960932577189  59.0625 25.06616257088847  L 45.97355769230769 38.449905482041586  L 49.07451923076923 57.353497164461245  C 49.19471153846154 58.18525519848772  49.12259615384616 58.83427851291746  48.85817307692307 59.30056710775047  C 48.59375 59.76685570258349  48.18509615384616 60  47.63221153846154 60  C 47.22355769230769 60  46.74278846153847 59.848771266540645  46.18990384615385 59.54631379962193  L 30 50.62381852551985  L 13.810096153846153 59.54631379962193  C 13.25721153846154 59.848771266540645  12.776442307692308 60  12.367788461538462 60  C 11.814903846153847 60  11.406250000000002 59.76685570258349  11.141826923076923 59.30056710775047  C 10.877403846153847 58.83427851291746  10.805288461538462 58.18525519848772  10.925480769230768 57.353497164461245  L 14.026442307692308 38.449905482041586  L 0.9014423076923077 25.06616257088847  C 0.1322115384615384 24.25960932577189  -0.14423076923076925 23.50976685570258  0.07211538461538462 22.81663516068053  C 0.2884615384615385 22.123503465658473  0.9375 21.688720856962824  2.019230769230769 21.512287334593573  L 20.120192307692307 18.7523629489603  L 28.233173076923077 1.5500945179584091  C 28.71394230769231 0.5166981726528008  29.302884615384617 0  30 0  C 30.673076923076927 0  31.26201923076923 0.5166981726528008  31.766826923076927 1.5500945179584091  L 39.87980769230769 18.7523629489603  L 57.98076923076923 21.512287334593573  C 59.06250000000001 21.688720856962824  59.71153846153847 22.123503465658473  59.92788461538461 22.81663516068053  Z " stroke-width="0" stroke-dasharray="0" stroke="rgba(255, 255, 255, 0)" fill="none" transform="matrix(1 0 0 1 590 526 )" class="stroke" mask="url(#Clip20)" />
  </g>
</svg>