<?xml version="1.0" encoding="utf-8"?>
<svg version="1.1" xmlns:xlink="http://www.w3.org/1999/xlink" width="20px" height="20px" xmlns="http://www.w3.org/2000/svg">
  <defs>
    <pattern id="BGPattern" patternUnits="userSpaceOnUse" alignment="0 0" imageRepeat="None" />
    <mask fill="white" id="Clip23">
      <path d="M 18.883928571428573 7.684659090909092  C 19.308035714285715 7.315340909090908  19.680059523809526 6.903409090909092  20 6.448863636363635  L 20 17.727272727272727  C 20 18.352272727272727  19.82514880952381 18.88731060606061  19.475446428571427 19.332386363636363  C 19.12574404761905 19.777462121212118  18.705357142857146 20  18.214285714285715 20  L 1.7857142857142858 20  C 1.2946428571428572 20  0.8742559523809524 19.777462121212118  0.5245535714285715 19.332386363636363  C 0.17485119047619055 18.88731060606061  0 18.352272727272727  0 17.727272727272727  L 0 6.448863636363635  C 0.32738095238095244 6.912878787878787  0.7031250000000001 7.324810606060604  1.1272321428571428 7.684659090909092  C 3.8206845238095246 10.014204545454547  5.669642857142857 11.647727272727273  6.674107142857143 12.585227272727273  C 7.0982142857142865 12.982954545454547  7.44233630952381 13.29308712121212  7.7064732142857135 13.515625  C 7.9706101190476195 13.738162878787875  8.32217261904762 13.965435606060606  8.761160714285714 14.197443181818183  C 9.20014880952381 14.429450757575758  9.609375 14.545454545454547  9.988839285714286 14.545454545454547  L 10 14.545454545454547  L 10.011160714285714 14.545454545454547  C 10.390625000000002 14.545454545454547  10.79985119047619 14.429450757575758  11.238839285714286 14.197443181818183  C 11.677827380952383 13.965435606060606  12.029389880952383 13.738162878787875  12.293526785714286 13.515625  C 12.55766369047619 13.29308712121212  12.901785714285714 12.982954545454547  13.325892857142858 12.585227272727273  C 14.590773809523812 11.420454545454547  16.443452380952383 9.786931818181818  18.883928571428573 7.684659090909092  Z M 19.469866071428573 0.6676136363636354  C 19.82328869047619 1.1126893939393923  20 1.647727272727273  20 2.272727272727273  C 20 3.0208333333333304  19.817708333333336 3.735795454545454  19.453125 4.417613636363635  C 19.088541666666668 5.099431818181818  18.63467261904762 5.681818181818182  18.091517857142858 6.164772727272727  C 15.293898809523812 8.636363636363635  13.552827380952383 10.175189393939394  12.868303571428573 10.78125  C 12.793898809523812 10.847537878787879  12.63578869047619 10.991950757575758  12.393973214285714 11.214488636363637  C 12.152157738095239 11.437026515151514  11.951264880952383 11.616950757575758  11.791294642857142 11.754261363636363  C 11.631324404761905 11.891571969696969  11.437872023809526 12.045454545454547  11.2109375 12.215909090909092  C 10.984002976190476 12.386363636363637  10.770089285714286 12.514204545454547  10.569196428571427 12.599431818181817  C 10.368303571428573 12.684659090909092  10.182291666666668 12.727272727272727  10.011160714285714 12.727272727272727  L 10 12.727272727272727  L 9.988839285714286 12.727272727272727  C 9.817708333333334 12.727272727272727  9.631696428571429 12.684659090909092  9.430803571428571 12.599431818181817  C 9.229910714285714 12.514204545454547  9.015997023809524 12.386363636363637  8.7890625 12.215909090909092  C 8.562127976190476 12.045454545454547  8.368675595238095 11.891571969696969  8.208705357142858 11.754261363636363  C 8.04873511904762 11.616950757575758  7.847842261904763 11.437026515151514  7.6060267857142865 11.214488636363637  C 7.36421130952381 10.991950757575758  7.206101190476192 10.847537878787879  7.131696428571429 10.78125  C 6.454613095238095 10.175189393939394  5.4799107142857135 9.311079545454547  4.207589285714286 8.188920454545453  C 2.9352678571428568 7.066761363636362  2.172619047619048 6.3920454545454515  1.9196428571428572 6.164772727272727  C 1.4583333333333335 5.7670454545454515  1.0230654761904765 5.220170454545454  0.6138392857142858 4.524147727272727  C 0.20461309523809532 3.828125  0 3.181818181818181  0 2.585227272727273  C 0 1.8465909090909083  0.15438988095238101 1.2310606060606033  0.46316964285714296 0.7386363636363646  C 0.7719494047619049 0.24621212121211933  1.2127976190476193 0  1.7857142857142858 0  L 18.214285714285715 0  C 18.697916666666668 0  19.116443452380953 0.22253787878787623  19.469866071428573 0.6676136363636354  Z " fill-rule="evenodd" />
    </mask>
  </defs>
  <g transform="matrix(1 0 0 1 -893 -858 )">
    <path d="M 18.883928571428573 7.684659090909092  C 19.308035714285715 7.315340909090908  19.680059523809526 6.903409090909092  20 6.448863636363635  L 20 17.727272727272727  C 20 18.352272727272727  19.82514880952381 18.88731060606061  19.475446428571427 19.332386363636363  C 19.12574404761905 19.777462121212118  18.705357142857146 20  18.214285714285715 20  L 1.7857142857142858 20  C 1.2946428571428572 20  0.8742559523809524 19.777462121212118  0.5245535714285715 19.332386363636363  C 0.17485119047619055 18.88731060606061  0 18.352272727272727  0 17.727272727272727  L 0 6.448863636363635  C 0.32738095238095244 6.912878787878787  0.7031250000000001 7.324810606060604  1.1272321428571428 7.684659090909092  C 3.8206845238095246 10.014204545454547  5.669642857142857 11.647727272727273  6.674107142857143 12.585227272727273  C 7.0982142857142865 12.982954545454547  7.44233630952381 13.29308712121212  7.7064732142857135 13.515625  C 7.9706101190476195 13.738162878787875  8.32217261904762 13.965435606060606  8.761160714285714 14.197443181818183  C 9.20014880952381 14.429450757575758  9.609375 14.545454545454547  9.988839285714286 14.545454545454547  L 10 14.545454545454547  L 10.011160714285714 14.545454545454547  C 10.390625000000002 14.545454545454547  10.79985119047619 14.429450757575758  11.238839285714286 14.197443181818183  C 11.677827380952383 13.965435606060606  12.029389880952383 13.738162878787875  12.293526785714286 13.515625  C 12.55766369047619 13.29308712121212  12.901785714285714 12.982954545454547  13.325892857142858 12.585227272727273  C 14.590773809523812 11.420454545454547  16.443452380952383 9.786931818181818  18.883928571428573 7.684659090909092  Z M 19.469866071428573 0.6676136363636354  C 19.82328869047619 1.1126893939393923  20 1.647727272727273  20 2.272727272727273  C 20 3.0208333333333304  19.817708333333336 3.735795454545454  19.453125 4.417613636363635  C 19.088541666666668 5.099431818181818  18.63467261904762 5.681818181818182  18.091517857142858 6.164772727272727  C 15.293898809523812 8.636363636363635  13.552827380952383 10.175189393939394  12.868303571428573 10.78125  C 12.793898809523812 10.847537878787879  12.63578869047619 10.991950757575758  12.393973214285714 11.214488636363637  C 12.152157738095239 11.437026515151514  11.951264880952383 11.616950757575758  11.791294642857142 11.754261363636363  C 11.631324404761905 11.891571969696969  11.437872023809526 12.045454545454547  11.2109375 12.215909090909092  C 10.984002976190476 12.386363636363637  10.770089285714286 12.514204545454547  10.569196428571427 12.599431818181817  C 10.368303571428573 12.684659090909092  10.182291666666668 12.727272727272727  10.011160714285714 12.727272727272727  L 10 12.727272727272727  L 9.988839285714286 12.727272727272727  C 9.817708333333334 12.727272727272727  9.631696428571429 12.684659090909092  9.430803571428571 12.599431818181817  C 9.229910714285714 12.514204545454547  9.015997023809524 12.386363636363637  8.7890625 12.215909090909092  C 8.562127976190476 12.045454545454547  8.368675595238095 11.891571969696969  8.208705357142858 11.754261363636363  C 8.04873511904762 11.616950757575758  7.847842261904763 11.437026515151514  7.6060267857142865 11.214488636363637  C 7.36421130952381 10.991950757575758  7.206101190476192 10.847537878787879  7.131696428571429 10.78125  C 6.454613095238095 10.175189393939394  5.4799107142857135 9.311079545454547  4.207589285714286 8.188920454545453  C 2.9352678571428568 7.066761363636362  2.172619047619048 6.3920454545454515  1.9196428571428572 6.164772727272727  C 1.4583333333333335 5.7670454545454515  1.0230654761904765 5.220170454545454  0.6138392857142858 4.524147727272727  C 0.20461309523809532 3.828125  0 3.181818181818181  0 2.585227272727273  C 0 1.8465909090909083  0.15438988095238101 1.2310606060606033  0.46316964285714296 0.7386363636363646  C 0.7719494047619049 0.24621212121211933  1.2127976190476193 0  1.7857142857142858 0  L 18.214285714285715 0  C 18.697916666666668 0  19.116443452380953 0.22253787878787623  19.469866071428573 0.6676136363636354  Z " fill-rule="nonzero" fill="rgba(255, 111, 97, 1)" stroke="none" transform="matrix(1 0 0 1 893 858 )" class="fill" />
    <path d="M 18.883928571428573 7.684659090909092  C 19.308035714285715 7.315340909090908  19.680059523809526 6.903409090909092  20 6.448863636363635  L 20 17.727272727272727  C 20 18.352272727272727  19.82514880952381 18.88731060606061  19.475446428571427 19.332386363636363  C 19.12574404761905 19.777462121212118  18.705357142857146 20  18.214285714285715 20  L 1.7857142857142858 20  C 1.2946428571428572 20  0.8742559523809524 19.777462121212118  0.5245535714285715 19.332386363636363  C 0.17485119047619055 18.88731060606061  0 18.352272727272727  0 17.727272727272727  L 0 6.448863636363635  C 0.32738095238095244 6.912878787878787  0.7031250000000001 7.324810606060604  1.1272321428571428 7.684659090909092  C 3.8206845238095246 10.014204545454547  5.669642857142857 11.647727272727273  6.674107142857143 12.585227272727273  C 7.0982142857142865 12.982954545454547  7.44233630952381 13.29308712121212  7.7064732142857135 13.515625  C 7.9706101190476195 13.738162878787875  8.32217261904762 13.965435606060606  8.761160714285714 14.197443181818183  C 9.20014880952381 14.429450757575758  9.609375 14.545454545454547  9.988839285714286 14.545454545454547  L 10 14.545454545454547  L 10.011160714285714 14.545454545454547  C 10.390625000000002 14.545454545454547  10.79985119047619 14.429450757575758  11.238839285714286 14.197443181818183  C 11.677827380952383 13.965435606060606  12.029389880952383 13.738162878787875  12.293526785714286 13.515625  C 12.55766369047619 13.29308712121212  12.901785714285714 12.982954545454547  13.325892857142858 12.585227272727273  C 14.590773809523812 11.420454545454547  16.443452380952383 9.786931818181818  18.883928571428573 7.684659090909092  Z " stroke-width="0" stroke-dasharray="0" stroke="rgba(255, 255, 255, 0)" fill="none" transform="matrix(1 0 0 1 893 858 )" class="stroke" mask="url(#Clip23)" />
    <path d="M 19.469866071428573 0.6676136363636354  C 19.82328869047619 1.1126893939393923  20 1.647727272727273  20 2.272727272727273  C 20 3.0208333333333304  19.817708333333336 3.735795454545454  19.453125 4.417613636363635  C 19.088541666666668 5.099431818181818  18.63467261904762 5.681818181818182  18.091517857142858 6.164772727272727  C 15.293898809523812 8.636363636363635  13.552827380952383 10.175189393939394  12.868303571428573 10.78125  C 12.793898809523812 10.847537878787879  12.63578869047619 10.991950757575758  12.393973214285714 11.214488636363637  C 12.152157738095239 11.437026515151514  11.951264880952383 11.616950757575758  11.791294642857142 11.754261363636363  C 11.631324404761905 11.891571969696969  11.437872023809526 12.045454545454547  11.2109375 12.215909090909092  C 10.984002976190476 12.386363636363637  10.770089285714286 12.514204545454547  10.569196428571427 12.599431818181817  C 10.368303571428573 12.684659090909092  10.182291666666668 12.727272727272727  10.011160714285714 12.727272727272727  L 10 12.727272727272727  L 9.988839285714286 12.727272727272727  C 9.817708333333334 12.727272727272727  9.631696428571429 12.684659090909092  9.430803571428571 12.599431818181817  C 9.229910714285714 12.514204545454547  9.015997023809524 12.386363636363637  8.7890625 12.215909090909092  C 8.562127976190476 12.045454545454547  8.368675595238095 11.891571969696969  8.208705357142858 11.754261363636363  C 8.04873511904762 11.616950757575758  7.847842261904763 11.437026515151514  7.6060267857142865 11.214488636363637  C 7.36421130952381 10.991950757575758  7.206101190476192 10.847537878787879  7.131696428571429 10.78125  C 6.454613095238095 10.175189393939394  5.4799107142857135 9.311079545454547  4.207589285714286 8.188920454545453  C 2.9352678571428568 7.066761363636362  2.172619047619048 6.3920454545454515  1.9196428571428572 6.164772727272727  C 1.4583333333333335 5.7670454545454515  1.0230654761904765 5.220170454545454  0.6138392857142858 4.524147727272727  C 0.20461309523809532 3.828125  0 3.181818181818181  0 2.585227272727273  C 0 1.8465909090909083  0.15438988095238101 1.2310606060606033  0.46316964285714296 0.7386363636363646  C 0.7719494047619049 0.24621212121211933  1.2127976190476193 0  1.7857142857142858 0  L 18.214285714285715 0  C 18.697916666666668 0  19.116443452380953 0.22253787878787623  19.469866071428573 0.6676136363636354  Z " stroke-width="0" stroke-dasharray="0" stroke="rgba(255, 255, 255, 0)" fill="none" transform="matrix(1 0 0 1 893 858 )" class="stroke" mask="url(#Clip23)" />
  </g>
</svg>