<?xml version="1.0" encoding="utf-8"?>
<svg version="1.1" xmlns:xlink="http://www.w3.org/1999/xlink" width="20px" height="20px" xmlns="http://www.w3.org/2000/svg">
  <defs>
    <pattern id="BGPattern" patternUnits="userSpaceOnUse" alignment="0 0" imageRepeat="None" />
    <mask fill="white" id="Clip24">
      <path d="M 1.1067708333333333 0  L 18.893229166666668 0  C 19.197048611111114 0  19.45746527777778 0.1085069444444442  19.674479166666668 0.3255208333333326  C 19.891493055555554 0.542534722222221  20 0.8029513888888862  20 1.1067708333333326  L 20 18.893229166666668  C 20 19.19704861111111  19.891493055555554 19.45746527777778  19.674479166666668 19.674479166666668  C 19.45746527777778 19.891493055555557  19.197048611111114 20  18.893229166666668 20  L 13.802083333333332 20  L 13.802083333333332 12.252604166666664  L 16.393229166666668 12.252604166666664  L 16.783854166666668 9.231770833333332  L 13.802083333333332 9.231770833333332  L 13.802083333333332 7.3046875  C 13.802083333333332 6.818576388888886  13.904079861111114 6.453993055555554  14.108072916666668 6.2109375  C 14.312065972222223 5.967881944444445  14.709201388888891 5.846354166666668  15.299479166666668 5.846354166666668  L 16.888020833333332 5.833333333333332  L 16.888020833333332 3.1380208333333326  C 16.341145833333332 3.0598958333333326  15.568576388888891 3.0208333333333326  14.5703125 3.0208333333333326  C 13.389756944444446 3.0208333333333326  12.445746527777779 3.3680555555555536  11.73828125 4.0625  C 11.030815972222223 4.756944444444445  10.677083333333332 5.737847222222221  10.677083333333332 7.005208333333332  L 10.677083333333332 9.231770833333332  L 8.072916666666666 9.231770833333332  L 8.072916666666666 12.252604166666664  L 10.677083333333332 12.252604166666664  L 10.677083333333332 20  L 1.1067708333333333 20  C 0.802951388888889 20  0.5425347222222223 19.891493055555557  0.32552083333333337 19.674479166666668  C 0.10850694444444442 19.45746527777778  0 19.19704861111111  0 18.893229166666668  L 0 1.1067708333333326  C 0 0.8029513888888862  0.10850694444444442 0.542534722222221  0.32552083333333337 0.3255208333333326  C 0.5425347222222223 0.1085069444444442  0.802951388888889 0  1.1067708333333333 0  Z " fill-rule="evenodd" />
    </mask>
  </defs>
  <g transform="matrix(1 0 0 1 -893 -944 )">
    <path d="M 1.1067708333333333 0  L 18.893229166666668 0  C 19.197048611111114 0  19.45746527777778 0.1085069444444442  19.674479166666668 0.3255208333333326  C 19.891493055555554 0.542534722222221  20 0.8029513888888862  20 1.1067708333333326  L 20 18.893229166666668  C 20 19.19704861111111  19.891493055555554 19.45746527777778  19.674479166666668 19.674479166666668  C 19.45746527777778 19.891493055555557  19.197048611111114 20  18.893229166666668 20  L 13.802083333333332 20  L 13.802083333333332 12.252604166666664  L 16.393229166666668 12.252604166666664  L 16.783854166666668 9.231770833333332  L 13.802083333333332 9.231770833333332  L 13.802083333333332 7.3046875  C 13.802083333333332 6.818576388888886  13.904079861111114 6.453993055555554  14.108072916666668 6.2109375  C 14.312065972222223 5.967881944444445  14.709201388888891 5.846354166666668  15.299479166666668 5.846354166666668  L 16.888020833333332 5.833333333333332  L 16.888020833333332 3.1380208333333326  C 16.341145833333332 3.0598958333333326  15.568576388888891 3.0208333333333326  14.5703125 3.0208333333333326  C 13.389756944444446 3.0208333333333326  12.445746527777779 3.3680555555555536  11.73828125 4.0625  C 11.030815972222223 4.756944444444445  10.677083333333332 5.737847222222221  10.677083333333332 7.005208333333332  L 10.677083333333332 9.231770833333332  L 8.072916666666666 9.231770833333332  L 8.072916666666666 12.252604166666664  L 10.677083333333332 12.252604166666664  L 10.677083333333332 20  L 1.1067708333333333 20  C 0.802951388888889 20  0.5425347222222223 19.891493055555557  0.32552083333333337 19.674479166666668  C 0.10850694444444442 19.45746527777778  0 19.19704861111111  0 18.893229166666668  L 0 1.1067708333333326  C 0 0.8029513888888862  0.10850694444444442 0.542534722222221  0.32552083333333337 0.3255208333333326  C 0.5425347222222223 0.1085069444444442  0.802951388888889 0  1.1067708333333333 0  Z " fill-rule="nonzero" fill="rgba(255, 111, 97, 1)" stroke="none" transform="matrix(1 0 0 1 893 944 )" class="fill" />
    <path d="M 1.1067708333333333 0  L 18.893229166666668 0  C 19.197048611111114 0  19.45746527777778 0.1085069444444442  19.674479166666668 0.3255208333333326  C 19.891493055555554 0.542534722222221  20 0.8029513888888862  20 1.1067708333333326  L 20 18.893229166666668  C 20 19.19704861111111  19.891493055555554 19.45746527777778  19.674479166666668 19.674479166666668  C 19.45746527777778 19.891493055555557  19.197048611111114 20  18.893229166666668 20  L 13.802083333333332 20  L 13.802083333333332 12.252604166666664  L 16.393229166666668 12.252604166666664  L 16.783854166666668 9.231770833333332  L 13.802083333333332 9.231770833333332  L 13.802083333333332 7.3046875  C 13.802083333333332 6.818576388888886  13.904079861111114 6.453993055555554  14.108072916666668 6.2109375  C 14.312065972222223 5.967881944444445  14.709201388888891 5.846354166666668  15.299479166666668 5.846354166666668  L 16.888020833333332 5.833333333333332  L 16.888020833333332 3.1380208333333326  C 16.341145833333332 3.0598958333333326  15.568576388888891 3.0208333333333326  14.5703125 3.0208333333333326  C 13.389756944444446 3.0208333333333326  12.445746527777779 3.3680555555555536  11.73828125 4.0625  C 11.030815972222223 4.756944444444445  10.677083333333332 5.737847222222221  10.677083333333332 7.005208333333332  L 10.677083333333332 9.231770833333332  L 8.072916666666666 9.231770833333332  L 8.072916666666666 12.252604166666664  L 10.677083333333332 12.252604166666664  L 10.677083333333332 20  L 1.1067708333333333 20  C 0.802951388888889 20  0.5425347222222223 19.891493055555557  0.32552083333333337 19.674479166666668  C 0.10850694444444442 19.45746527777778  0 19.19704861111111  0 18.893229166666668  L 0 1.1067708333333326  C 0 0.8029513888888862  0.10850694444444442 0.542534722222221  0.32552083333333337 0.3255208333333326  C 0.5425347222222223 0.1085069444444442  0.802951388888889 0  1.1067708333333333 0  Z " stroke-width="0" stroke-dasharray="0" stroke="rgba(255, 255, 255, 0)" fill="none" transform="matrix(1 0 0 1 893 944 )" class="stroke" mask="url(#Clip24)" />
  </g>
</svg>